<svg width="98" height="102" viewBox="0 0 98 102" fill="none" xmlns="http://www.w3.org/2000/svg">
<path d="M77.7176 50.0943H85.3139C87.0312 50.0943 88.4284 48.7857 88.4284 47.1772V40.0623C88.4284 38.4538 87.0312 37.1451 85.3139 37.1451H77.7176C76.0003 37.1451 74.6031 38.4538 74.6031 40.0623V47.1772C74.6031 48.7857 76.0003 50.0943 77.7176 50.0943ZM77.7935 40.1334H85.2379V47.1061H77.7935V40.1334ZM77.7176 69.0201H85.3139C87.0312 69.0201 88.4284 67.7115 88.4284 66.103V58.9881C88.4284 57.3796 87.0312 56.0709 85.3139 56.0709H77.7176C76.0003 56.0709 74.6031 57.3796 74.6031 58.9881V66.103C74.6031 67.7115 76.0003 69.0201 77.7176 69.0201ZM77.7935 59.0592H85.2379V66.0319H77.7935V59.0592ZM56.0403 50.0943H63.6366C65.3539 50.0943 66.7511 48.7857 66.7511 47.1772V40.0623C66.7511 38.4538 65.3539 37.1451 63.6366 37.1451H56.0403C54.323 37.1451 52.9258 38.4538 52.9258 40.0623V47.1772C52.9258 48.7857 54.323 50.0943 56.0403 50.0943ZM56.1162 40.1334H63.5606V47.1061H56.1162V40.1334ZM20.282 74.1094H12.6857C10.9684 74.1094 9.57118 75.418 9.57118 77.0265V84.1414C9.57118 85.7499 10.9684 87.0586 12.6857 87.0586H20.282C21.9993 87.0586 23.3965 85.7499 23.3965 84.1414V77.0265C23.3965 75.418 21.9993 74.1094 20.282 74.1094ZM20.2061 84.0703H12.7616V77.0977H20.2061V84.0703ZM20.282 37.1451H12.6857C10.9684 37.1451 9.57118 38.4538 9.57118 40.0623V47.1772C9.57118 48.7857 10.9684 50.0943 12.6857 50.0943H20.282C21.9993 50.0943 23.3965 48.7857 23.3965 47.1772V40.0623C23.3965 38.4536 21.9993 37.1451 20.282 37.1451ZM20.2061 47.1061H12.7616V40.1334H20.2061V47.1061ZM56.0403 68.5765H63.6366C65.3539 68.5765 66.7511 67.2678 66.7511 65.6593V58.5444C66.7511 56.9359 65.3539 55.6273 63.6366 55.6273H56.0403C54.323 55.6273 52.9258 56.9359 52.9258 58.5444V65.6593C52.9258 67.2678 54.323 68.5765 56.0403 68.5765ZM56.1162 58.6155H63.5606V65.5882H56.1162V58.6155ZM90.0128 6.82802H83.1924V4.54358C83.1924 2.03821 81.0163 0 78.3414 0H77.6089C74.9342 0 72.7581 2.03821 72.7581 4.54358V6.82802H25.2415V4.54358C25.2415 2.03821 23.0654 0 20.3905 0H19.6579C16.9831 0 14.8069 2.03821 14.8069 4.54358V6.82802H7.98679C3.58289 6.82802 0 10.1839 0 14.3087V94.5293C0 98.6487 3.578 102 7.97616 102H90.0238C94.422 102 98 98.6487 98 94.5293V14.3087C97.9998 10.1839 94.4169 6.82802 90.0128 6.82802ZM75.9486 4.54358C75.9486 3.68595 76.6934 2.98828 77.6091 2.98828H78.3416C79.2573 2.98828 80.0022 3.68595 80.0022 4.54358V6.82802H75.9486V4.54358ZM17.9976 4.54358C17.9976 3.68595 18.7425 2.98828 19.6582 2.98828H20.3907C21.3063 2.98828 22.0512 3.68595 22.0512 4.54358V6.82802H17.9978V4.54358H17.9976ZM94.8093 94.5293C94.8093 97.001 92.6626 99.0117 90.0236 99.0117H7.97595C5.33701 99.0117 3.19025 97.001 3.19025 94.5293V94.5199C4.52684 95.4632 6.18822 96.0234 7.98679 96.0234H72.6645C74.7979 96.0234 76.8036 95.2453 78.3121 93.8322L94.8093 78.3804V94.5293ZM76.6843 91.1308C76.8094 90.6473 76.8774 90.1431 76.8774 89.6241V79.6504C76.8774 77.7698 78.5112 76.2396 80.5192 76.2396H91.1675C91.7216 76.2396 92.2599 76.1759 92.7761 76.0587L76.6843 91.1308ZM94.8093 28.1803H26.8367C25.9557 28.1803 25.2415 28.8493 25.2415 29.6744C25.2415 30.4996 25.9557 31.1686 26.8367 31.1686H94.8093V69.8405C94.8093 71.7213 93.1756 73.2515 91.1675 73.2515H80.5192C76.7519 73.2515 73.687 76.1223 73.687 79.6506V89.6243C73.687 91.5052 72.0532 93.0354 70.0454 93.0354H7.98679C5.34211 93.0354 3.19046 91.0201 3.19046 88.5428V31.1686H20.4558C21.3368 31.1686 22.051 30.4996 22.051 29.6744C22.051 28.8493 21.3368 28.1803 20.4558 28.1803H3.19025V14.3087C3.19025 11.8316 5.3419 9.8163 7.98658 9.8163H14.8069V14.2095C14.8069 16.7149 16.9831 18.7531 19.6579 18.7531C20.5389 18.7531 21.2532 18.0841 21.2532 17.2589C21.2532 16.4338 20.5389 15.7648 19.6579 15.7648C18.7423 15.7648 17.9974 15.0671 17.9974 14.2095V9.8163H72.7581V14.2095C72.7581 16.7149 74.9342 18.7531 77.6091 18.7531C78.4901 18.7531 79.2043 18.0841 79.2043 17.2589C79.2043 16.4338 78.4901 15.7648 77.6091 15.7648C76.6934 15.7648 75.9486 15.0671 75.9486 14.2095V9.8163H90.013C92.6577 9.8163 94.8093 11.8316 94.8093 14.3087V28.1803ZM20.282 55.6273H12.6857C10.9684 55.6273 9.57118 56.9359 9.57118 58.5444V65.6593C9.57118 67.2678 10.9684 68.5765 12.6857 68.5765H20.282C21.9993 68.5765 23.3965 67.2678 23.3965 65.6593V58.5444C23.3965 56.9357 21.9993 55.6273 20.282 55.6273ZM20.2061 65.5882H12.7616V58.6155H20.2061V65.5882ZM34.363 50.0943H41.9593C43.6766 50.0943 45.0738 48.7857 45.0738 47.1772V40.0623C45.0738 38.4538 43.6766 37.1451 41.9593 37.1451H34.363C32.6457 37.1451 31.2485 38.4538 31.2485 40.0623V47.1772C31.2485 48.7857 32.6457 50.0943 34.363 50.0943ZM34.4389 40.1334H41.8834V47.1061H34.4389V40.1334ZM56.1143 84.0703C56.0747 83.278 55.3765 82.6473 54.5208 82.6473C53.6398 82.6473 52.9255 83.3163 52.9255 84.1414C52.9255 85.7499 54.3228 87.0586 56.0401 87.0586H63.6364C65.3537 87.0586 66.7509 85.7499 66.7509 84.1414V77.0265C66.7509 75.418 65.3537 74.1094 63.6364 74.1094H56.0401C54.3228 74.1094 52.9255 75.418 52.9255 77.0265V79.0785C52.9255 79.9036 53.6398 80.5726 54.5208 80.5726C55.4018 80.5726 56.116 79.9036 56.116 79.0785V77.0977H63.5604V84.0703H56.1143ZM34.363 68.5765H41.9593C43.6766 68.5765 45.0738 67.2678 45.0738 65.6593V58.5444C45.0738 56.9359 43.6766 55.6273 41.9593 55.6273H34.363C32.6457 55.6273 31.2485 56.9359 31.2485 58.5444V65.6593C31.2485 67.2678 32.6457 68.5765 34.363 68.5765ZM34.4389 58.6155H41.8834V65.5882H34.4389V58.6155ZM34.363 87.0586H41.9593C43.6766 87.0586 45.0738 85.7499 45.0738 84.1414V77.0265C45.0738 75.418 43.6766 74.1094 41.9593 74.1094H34.363C32.6457 74.1094 31.2485 75.418 31.2485 77.0265V84.1414C31.2485 85.7499 32.6457 87.0586 34.363 87.0586ZM34.4389 77.0977H41.8834V84.0703H34.4389V77.0977Z" fill="#D1B05E"/>
</svg>
