<svg width="1190" height="145" viewBox="0 0 1190 145" fill="none" xmlns="http://www.w3.org/2000/svg">
<path d="M41.74 129.66L40.7913 129.976L40.7956 129.989L40.8002 130.002L41.74 129.66ZM45.04 132.96L44.6983 133.9L44.711 133.904L44.7238 133.909L45.04 132.96ZM90.58 124.82L91.164 125.632L91.1732 125.625L90.58 124.82ZM107.3 99.96L108.266 100.219L108.3 100.091V99.96H107.3ZM109.06 99.96L108.353 100.667L108.52 100.834L108.744 100.909L109.06 99.96ZM109.72 100.4L110.716 100.491L110.72 100.445V100.4H109.72ZM106.86 139.34L106.153 138.633L106.153 138.633L106.86 139.34ZM10.72 136.26L10.4038 135.311L10.3937 135.315L10.3837 135.318L10.72 136.26ZM15.12 132.08L14.1915 131.709L14.1846 131.726L14.1783 131.744L15.12 132.08ZM15.12 10.64L14.1783 10.9763L14.1887 11.0055L14.2009 11.0339L15.12 10.64ZM10.72 6.45999L10.3486 7.38847L10.3759 7.39938L10.4038 7.40867L10.72 6.45999ZM0.6 2.5L0.619604 1.50019L0.609803 1.5H0.6V2.5ZM11.82 2.72L11.8634 1.72094L11.8515 1.72042L11.8396 1.72019L11.82 2.72ZM45.26 2.72L45.2404 1.72019L45.2285 1.72042L45.2166 1.72094L45.26 2.72ZM56.48 2.5V1.5H56.4702L56.4604 1.50019L56.48 2.5ZM46.36 6.45999L46.6762 7.40867L46.7041 7.39938L46.7314 7.38847L46.36 6.45999ZM41.96 10.86L42.9017 11.1963L42.9053 11.1863L42.9087 11.1762L41.96 10.86ZM39.86 121.3C39.86 125.132 40.1509 128.055 40.7913 129.976L42.6887 129.344C42.1558 127.745 41.86 125.094 41.86 121.3H39.86ZM40.8002 130.002C41.488 131.893 42.8069 133.212 44.6983 133.9L45.3817 132.02C44.0464 131.535 43.1654 130.654 42.6798 129.318L40.8002 130.002ZM44.7238 133.909C46.6451 134.549 49.5678 134.84 53.4 134.84V132.84C49.6055 132.84 46.9549 132.544 45.3562 132.011L44.7238 133.909ZM53.4 134.84H60.88V132.84H53.4V134.84ZM60.88 134.84C72.5052 134.84 82.6151 131.781 91.1639 125.632L89.9961 124.008C81.8249 129.886 72.1348 132.84 60.88 132.84V134.84ZM91.1732 125.625C99.7233 119.325 105.423 110.842 108.266 100.219L106.334 99.7015C103.604 109.905 98.1567 117.995 89.9868 124.015L91.1732 125.625ZM108.3 99.96C108.3 100.062 108.272 100.195 108.187 100.322C108.107 100.443 108.013 100.502 107.967 100.524C107.926 100.545 107.915 100.541 107.959 100.534C108.001 100.527 108.072 100.52 108.18 100.52V98.52C107.836 98.52 107.428 98.5578 107.073 98.7356C106.881 98.8316 106.677 98.9821 106.523 99.2128C106.365 99.4498 106.3 99.7117 106.3 99.96H108.3ZM108.18 100.52C108.154 100.52 108.148 100.512 108.173 100.524C108.202 100.539 108.263 100.577 108.353 100.667L109.767 99.2529C109.365 98.8506 108.832 98.52 108.18 98.52V100.52ZM108.744 100.909C108.831 100.938 108.896 100.963 108.943 100.984C108.991 101.005 109.006 101.016 109 101.012C108.999 101.011 108.942 100.975 108.879 100.89C108.809 100.797 108.72 100.629 108.72 100.4H110.72C110.72 99.7958 110.28 99.4615 110.11 99.3479C109.89 99.2017 109.627 99.095 109.376 99.0113L108.744 100.909ZM108.724 100.309C107.403 114.846 106.74 126.979 106.74 136.7H108.74C108.74 127.061 109.397 114.994 110.716 100.491L108.724 100.309ZM106.74 136.7C106.74 137.719 106.486 138.3 106.153 138.633L107.567 140.047C108.407 139.207 108.74 138.027 108.74 136.7H106.74ZM106.153 138.633C106.009 138.776 105.558 139 104.44 139V141C105.669 141 106.831 140.784 107.567 140.047L106.153 138.633ZM104.44 139H0.6V141H104.44V139ZM0.6 139C0.691802 139 0.79216 139.018 0.890794 139.06C0.988273 139.102 1.0624 139.158 1.11461 139.21C1.20996 139.306 1.22837 139.383 1.21868 139.354C1.21156 139.332 1.19497 139.269 1.18138 139.147C1.16819 139.028 1.16 138.874 1.16 138.68H-0.84C-0.84 139.149 -0.804129 139.61 -0.678683 139.986C-0.5618 140.337 -0.210923 141 0.6 141V139ZM1.16 138.68C1.16 138.486 1.16819 138.332 1.18138 138.213C1.19497 138.091 1.21156 138.028 1.21868 138.006C1.22837 137.977 1.20996 138.054 1.11461 138.15C1.0624 138.202 0.988273 138.258 0.890794 138.3C0.79216 138.342 0.691802 138.36 0.6 138.36V136.36C-0.210923 136.36 -0.5618 137.023 -0.678683 137.374C-0.804129 137.75 -0.84 138.211 -0.84 138.68H1.16ZM0.6 138.36C5.30682 138.36 8.82923 137.997 11.0563 137.202L10.3837 135.318C8.50411 135.99 5.27985 136.36 0.6 136.36V138.36ZM11.0362 137.209C13.5063 136.385 15.2177 134.78 16.0617 132.416L14.1783 131.744C13.5556 133.487 12.3337 134.668 10.4038 135.311L11.0362 137.209ZM16.0485 132.451C17.0004 130.071 17.44 126.617 17.44 122.18H15.44C15.44 126.543 14.9996 129.689 14.1915 131.709L16.0485 132.451ZM17.44 122.18V20.32H15.44V122.18H17.44ZM17.44 20.32C17.44 15.8904 17.0025 12.4939 16.0391 10.2461L14.2009 11.0339C14.9975 12.8928 15.44 15.9496 15.44 20.32H17.44ZM16.0617 10.3037C15.2177 7.94032 13.5063 6.33467 11.0362 5.5113L10.4038 7.40867C12.3337 8.05197 13.5556 9.23299 14.1783 10.9763L16.0617 10.3037ZM11.0914 5.53151C8.70898 4.57855 5.1788 4.13999 0.6 4.13999V6.13999C5.11454 6.13999 8.33102 6.58143 10.3486 7.38847L11.0914 5.53151ZM0.6 4.13999C0.691801 4.13999 0.79216 4.15795 0.890794 4.20022C0.988272 4.242 1.0624 4.29818 1.11461 4.35038C1.20996 4.44573 1.22837 4.52281 1.21868 4.49376C1.21155 4.47238 1.19497 4.40935 1.18138 4.28706C1.16819 4.16829 1.16 4.01417 1.16 3.82H-0.84C-0.84 4.28918 -0.804129 4.74989 -0.678683 5.12622C-0.561799 5.47687 -0.210921 6.13999 0.6 6.13999V4.13999ZM1.16 3.82C1.16 3.62583 1.16819 3.4717 1.18138 3.35293C1.19497 3.23064 1.21155 3.16761 1.21868 3.14623C1.22837 3.11718 1.20996 3.19426 1.11461 3.28961C1.0624 3.34181 0.988272 3.39799 0.890794 3.43977C0.79216 3.48204 0.691801 3.5 0.6 3.5V1.5C-0.210921 1.5 -0.561799 2.16312 -0.678683 2.51377C-0.804129 2.89011 -0.84 3.35081 -0.84 3.82H1.16ZM0.580396 3.49981L11.8004 3.7198L11.8396 1.72019L0.619604 1.50019L0.580396 3.49981ZM11.7766 3.71905C18.5309 4.01272 24.12 4.15999 28.54 4.15999V2.15999C24.16 2.15999 18.6024 2.01393 11.8634 1.72094L11.7766 3.71905ZM28.54 4.15999C32.96 4.15999 38.5491 4.01272 45.3034 3.71905L45.2166 1.72094C38.4776 2.01393 32.92 2.15999 28.54 2.15999V4.15999ZM45.2796 3.7198L56.4996 3.49981L56.4604 1.50019L45.2404 1.72019L45.2796 3.7198ZM56.48 3.5C56.415 3.5 56.3135 3.48088 56.2141 3.41455C56.1208 3.35239 56.0849 3.28584 56.0806 3.27721C56.0782 3.2725 56.0958 3.30739 56.1124 3.4069C56.1285 3.50371 56.14 3.63898 56.14 3.82H58.14C58.14 3.32892 58.0839 2.81175 57.8694 2.38279C57.7551 2.15416 57.5817 1.92261 57.3235 1.75045C57.059 1.57412 56.765 1.5 56.48 1.5V3.5ZM56.14 3.82C56.14 4.00101 56.1285 4.13628 56.1124 4.2331C56.0958 4.3326 56.0782 4.36749 56.0806 4.36278C56.0849 4.35415 56.1208 4.2876 56.2141 4.22544C56.3135 4.15911 56.415 4.13999 56.48 4.13999V6.13999C56.765 6.13999 57.059 6.06587 57.3235 5.88954C57.5817 5.71739 57.7551 5.48584 57.8694 5.25721C58.0839 4.82825 58.14 4.31107 58.14 3.82H56.14ZM56.48 4.13999C51.9012 4.13999 48.371 4.57855 45.9886 5.53151L46.7314 7.38847C48.749 6.58143 51.9655 6.13999 56.48 6.13999V4.13999ZM46.0438 5.5113C43.5452 6.34417 41.8442 8.04516 41.0113 10.5438L42.9087 11.1762C43.5425 9.27482 44.7748 8.04247 46.6762 7.40867L46.0438 5.5113ZM41.0183 10.5237C40.2243 12.7467 39.86 16.1176 39.86 20.54H41.86C41.86 16.1624 42.229 13.0799 42.9017 11.1963L41.0183 10.5237ZM39.86 20.54V121.3H41.86V20.54H39.86ZM223.003 105.02L223.953 105.332L224.003 105.18V105.02H223.003ZM224.983 105.02L224.276 105.727L224.443 105.894L224.667 105.969L224.983 105.02ZM225.643 105.46L226.635 105.587L226.643 105.524V105.46H225.643ZM222.783 139.34L223.49 140.047L223.54 139.997L223.583 139.94L222.783 139.34ZM133.023 136.26L132.707 135.311L132.696 135.315L132.686 135.318L133.023 136.26ZM137.423 132.08L138.365 132.416L138.368 132.406L138.371 132.396L137.423 132.08ZM137.423 10.64L136.481 10.9763L136.481 10.9763L137.423 10.64ZM133.023 6.45999L132.651 7.38847L132.679 7.39938L132.707 7.40867L133.023 6.45999ZM218.383 4.47999H217.383V4.48751L217.383 4.49502L218.383 4.47999ZM218.823 33.74H219.823V33.7325L219.823 33.725L218.823 33.74ZM217.503 34.4L217.338 33.4136L217.323 33.4163L217.307 33.4194L217.503 34.4ZM216.183 33.96L215.219 34.2259L215.226 34.2513L215.234 34.2762L216.183 33.96ZM204.303 15.04L203.71 15.8451L203.71 15.8451L204.303 15.04ZM166.023 11.74L166.703 12.4728L166.703 12.4728L166.023 11.74ZM162.943 65.42H161.943V66.42H162.943V65.42ZM200.783 61.02L200.241 60.1797L200.241 60.1797L200.783 61.02ZM210.023 48.7L211.023 48.7111V48.7H210.023ZM209.803 68.5L208.803 68.4889L208.803 68.5049L208.803 68.5208L209.803 68.5ZM210.023 79.06L209.023 79.0808L209.023 79.0998L209.025 79.1187L210.023 79.06ZM200.783 76.86L200.171 77.6507L200.185 77.6616L200.199 77.672L200.783 76.86ZM162.943 71.58V70.58H161.943V71.58H162.943ZM165.363 130.76L166.149 130.142L166.149 130.142L165.363 130.76ZM207.823 126.8L207.26 125.973L207.26 125.973L207.823 126.8ZM224.003 105.02C224.003 105.122 223.975 105.255 223.89 105.382C223.809 105.503 223.715 105.562 223.67 105.584C223.629 105.605 223.618 105.601 223.662 105.594C223.704 105.587 223.775 105.58 223.883 105.58V103.58C223.538 103.58 223.131 103.618 222.776 103.796C222.584 103.892 222.38 104.042 222.226 104.273C222.068 104.51 222.003 104.772 222.003 105.02H224.003ZM223.883 105.58C224.075 105.58 224.182 105.634 224.276 105.727L225.69 104.313C225.197 103.82 224.57 103.58 223.883 103.58V105.58ZM224.667 105.969C224.754 105.998 224.819 106.023 224.865 106.044C224.914 106.065 224.929 106.076 224.923 106.072C224.922 106.071 224.865 106.035 224.802 105.95C224.732 105.857 224.643 105.689 224.643 105.46H226.643C226.643 104.856 226.203 104.522 226.033 104.408C225.813 104.262 225.55 104.155 225.299 104.071L224.667 105.969ZM224.651 105.333C223.18 116.806 222.443 127.263 222.443 136.7H224.443C224.443 127.364 225.172 116.994 226.635 105.587L224.651 105.333ZM222.443 136.7C222.443 137.777 222.236 138.403 221.983 138.74L223.583 139.94C224.21 139.104 224.443 137.969 224.443 136.7H222.443ZM222.076 138.633C222.03 138.679 221.89 138.78 221.55 138.865C221.217 138.948 220.755 139 220.143 139V141C220.851 141 221.489 140.942 222.035 140.805C222.576 140.67 223.096 140.441 223.49 140.047L222.076 138.633ZM220.143 139H122.903V141H220.143V139ZM122.903 139C122.968 139 123.069 139.019 123.169 139.085C123.262 139.148 123.298 139.214 123.302 139.223C123.305 139.228 123.287 139.193 123.27 139.093C123.254 138.996 123.243 138.861 123.243 138.68H121.243C121.243 139.171 121.299 139.688 121.513 140.117C121.628 140.346 121.801 140.577 122.059 140.75C122.324 140.926 122.618 141 122.903 141V139ZM123.243 138.68C123.243 138.499 123.254 138.364 123.27 138.267C123.287 138.167 123.305 138.132 123.302 138.137C123.298 138.146 123.262 138.212 123.169 138.275C123.069 138.341 122.968 138.36 122.903 138.36V136.36C122.618 136.36 122.324 136.434 122.059 136.61C121.801 136.783 121.628 137.014 121.513 137.243C121.299 137.672 121.243 138.189 121.243 138.68H123.243ZM122.903 138.36C127.61 138.36 131.132 137.997 133.359 137.202L132.686 135.318C130.807 135.99 127.583 136.36 122.903 136.36V138.36ZM133.339 137.209C135.809 136.385 137.521 134.78 138.365 132.416L136.481 131.744C135.858 133.487 134.636 134.668 132.707 135.311L133.339 137.209ZM138.371 132.396C139.157 130.04 139.523 126.609 139.523 122.18H137.523C137.523 126.551 137.155 129.72 136.474 131.764L138.371 132.396ZM139.523 122.18V20.32H137.523V122.18H139.523ZM139.523 20.32C139.523 15.8976 139.159 12.5267 138.365 10.3037L136.481 10.9763C137.154 12.8599 137.523 15.9424 137.523 20.32H139.523ZM138.365 10.3037C137.521 7.94032 135.809 6.33467 133.339 5.5113L132.707 7.40867C134.636 8.05197 135.858 9.23299 136.481 10.9763L138.365 10.3037ZM133.394 5.53151C131.012 4.57855 127.482 4.13999 122.903 4.13999V6.13999C127.417 6.13999 130.634 6.58143 132.651 7.38847L133.394 5.53151ZM122.903 4.13999C122.968 4.13999 123.069 4.15911 123.169 4.22544C123.262 4.2876 123.298 4.35415 123.302 4.36278C123.305 4.36749 123.287 4.3326 123.27 4.2331C123.254 4.13628 123.243 4.00101 123.243 3.82H121.243C121.243 4.31107 121.299 4.82825 121.513 5.25721C121.628 5.48584 121.801 5.71739 122.059 5.88954C122.324 6.06587 122.618 6.13999 122.903 6.13999V4.13999ZM123.243 3.82C123.243 3.63898 123.254 3.50371 123.27 3.4069C123.287 3.30739 123.305 3.2725 123.302 3.27721C123.298 3.28584 123.262 3.35239 123.169 3.41455C123.069 3.48088 122.968 3.5 122.903 3.5V1.5C122.618 1.5 122.324 1.57412 122.059 1.75045C121.801 1.92261 121.628 2.15415 121.513 2.38278C121.299 2.81175 121.243 3.32892 121.243 3.82H123.243ZM122.903 3.5H216.183V1.5H122.903V3.5ZM216.183 3.5C216.786 3.5 217.053 3.6381 217.164 3.73829C217.255 3.82045 217.383 4.00295 217.383 4.47999H219.383C219.383 3.63704 219.144 2.82954 218.502 2.2517C217.88 1.69189 217.046 1.5 216.183 1.5V3.5ZM217.383 4.49502L217.823 33.755L219.823 33.725L219.383 4.46495L217.383 4.49502ZM217.823 33.74C217.823 33.5387 217.906 33.3833 217.981 33.2955C218.043 33.2234 218.086 33.2103 218.046 33.2306C218.011 33.2481 217.938 33.2779 217.813 33.3127C217.69 33.3468 217.533 33.3811 217.338 33.4136L217.667 35.3864C218.139 35.3077 218.586 35.1964 218.94 35.0194C219.255 34.8619 219.823 34.4771 219.823 33.74H217.823ZM217.307 33.4194C217.171 33.4465 217.074 33.455 217.008 33.455C216.942 33.455 216.924 33.4464 216.939 33.4513C216.959 33.4579 217.006 33.4791 217.055 33.5279C217.104 33.5767 217.125 33.6241 217.132 33.6438L215.234 34.2762C215.407 34.7948 215.788 35.1758 216.307 35.3487C216.763 35.501 217.256 35.4693 217.699 35.3806L217.307 33.4194ZM217.147 33.6941C214.757 25.0314 210.694 18.5075 204.896 14.2349L203.71 15.8451C209.058 19.7858 212.915 25.8752 215.219 34.2259L217.147 33.6941ZM204.896 14.2349C199.104 9.96711 191.543 7.88 182.303 7.88V9.88C191.249 9.88 198.355 11.8995 203.71 15.8451L204.896 14.2349ZM182.303 7.88H175.703V9.88H182.303V7.88ZM175.703 7.88C171.189 7.88 167.662 8.85355 165.342 11.0072L166.703 12.4728C168.491 10.8131 171.417 9.88 175.703 9.88V7.88ZM165.342 11.0072C163.013 13.1705 161.943 16.4195 161.943 20.54H163.943C163.943 16.7405 164.926 14.1228 166.703 12.4728L165.342 11.0072ZM161.943 20.54V65.42H163.943V20.54H161.943ZM162.943 66.42H181.203V64.42H162.943V66.42ZM181.203 66.42C189.801 66.42 196.549 64.9417 201.325 61.8603L200.241 60.1797C195.924 62.965 189.618 64.42 181.203 64.42V66.42ZM201.325 61.8603C206.148 58.7483 208.603 54.3297 208.603 48.7H206.603C206.603 53.6303 204.51 57.425 200.241 60.1797L201.325 61.8603ZM208.603 48.7C208.603 48.7316 208.595 48.8079 208.546 48.8969C208.496 48.9872 208.431 49.0394 208.392 49.0625C208.36 49.0816 208.36 49.0735 208.418 49.0618C208.474 49.0505 208.566 49.04 208.703 49.04V47.04C208.269 47.04 207.777 47.0993 207.363 47.3475C206.868 47.6446 206.603 48.1412 206.603 48.7H208.603ZM208.703 49.04C208.884 49.04 209.019 49.0515 209.116 49.0676C209.215 49.0842 209.25 49.1018 209.246 49.0994C209.237 49.0951 209.17 49.0592 209.108 48.9659C209.042 48.8665 209.023 48.765 209.023 48.7H211.023C211.023 48.415 210.949 48.121 210.772 47.8565C210.6 47.5983 210.369 47.4249 210.14 47.3106C209.711 47.0961 209.194 47.04 208.703 47.04V49.04ZM209.023 48.6889L208.803 68.4889L210.803 68.5111L211.023 48.7111L209.023 48.6889ZM208.803 68.5208L209.023 79.0808L211.023 79.0392L210.803 68.4792L208.803 68.5208ZM209.025 79.1187C209.317 84.0973 209.463 88.0351 209.463 90.94H211.463C211.463 87.9782 211.315 83.996 211.021 79.0013L209.025 79.1187ZM209.463 90.94C209.463 90.8482 209.481 90.7478 209.523 90.6492C209.565 90.5517 209.621 90.4776 209.673 90.4254C209.769 90.33 209.846 90.3116 209.817 90.3213C209.795 90.3284 209.732 90.345 209.61 90.3586C209.491 90.3718 209.337 90.38 209.143 90.38V92.38C209.612 92.38 210.073 92.3441 210.449 92.2187C210.8 92.1018 211.463 91.7509 211.463 90.94H209.463ZM209.143 90.38C208.949 90.38 208.795 90.3718 208.676 90.3586C208.553 90.345 208.49 90.3284 208.469 90.3213C208.44 90.3116 208.517 90.33 208.612 90.4254C208.665 90.4776 208.721 90.5517 208.763 90.6492C208.805 90.7478 208.823 90.8482 208.823 90.94H206.823C206.823 91.7509 207.486 92.1018 207.837 92.2187C208.213 92.3441 208.674 92.38 209.143 92.38V90.38ZM208.823 90.94C208.823 84.6201 206.333 79.618 201.366 76.048L200.199 77.672C204.619 80.8487 206.823 85.2332 206.823 90.94H208.823ZM201.395 76.0693C196.604 72.3603 189.751 70.58 180.983 70.58V72.58C189.521 72.58 195.868 74.3197 200.171 77.6507L201.395 76.0693ZM180.983 70.58H162.943V72.58H180.983V70.58ZM161.943 71.58V121.3H163.943V71.58H161.943ZM161.943 121.3C161.943 125.647 162.761 129.068 164.576 131.378L166.149 130.142C164.738 128.346 163.943 125.459 163.943 121.3H161.943ZM164.576 131.378C166.44 133.75 169.35 134.84 173.063 134.84V132.84C169.735 132.84 167.512 131.877 166.149 130.142L164.576 131.378ZM173.063 134.84H180.323V132.84H173.063V134.84ZM180.323 134.84C191.891 134.84 201.275 132.468 208.386 127.627L207.26 125.973C200.584 130.519 191.635 132.84 180.323 132.84V134.84ZM208.386 127.627C215.501 122.782 220.674 115.317 223.953 105.332L222.053 104.708C218.878 114.377 213.931 121.432 207.26 125.973L208.386 127.627ZM279.27 133.18L278.748 134.033L278.755 134.038L278.762 134.042L279.27 133.18ZM254.63 107.22L253.742 107.681L253.746 107.688L253.75 107.696L254.63 107.22ZM257.49 32.64L258.304 33.2202L258.308 33.2149L257.49 32.64ZM286.75 8.21999L286.338 7.30848L286.334 7.3104L286.75 8.21999ZM360.23 9.98L359.7 10.828L359.708 10.8333L360.23 9.98ZM384.43 35.72L383.542 36.1818L383.548 36.1912L384.43 35.72ZM382.45 106.56L381.604 106.026L382.45 106.56ZM354.07 132.96L353.592 132.081L353.588 132.084L354.07 132.96ZM345.05 130.1L345.638 130.909L345.641 130.906L345.05 130.1ZM360.45 109.2L361.377 109.574L361.379 109.569L360.45 109.2ZM359.79 40.12L358.856 40.4781L358.858 40.4824L359.79 40.12ZM341.97 15.04L341.358 15.831L341.358 15.831L341.97 15.04ZM283.89 21.2L284.701 21.7846L284.705 21.779L283.89 21.2ZM279.49 101.5L278.554 101.852L278.556 101.86L278.559 101.867L279.49 101.5ZM297.31 127.68L296.665 128.445L296.672 128.451L297.31 127.68ZM315.79 141.64C302.31 141.64 290.315 138.526 279.777 132.318L278.762 134.042C289.637 140.448 301.989 143.64 315.79 143.64V141.64ZM279.791 132.327C269.381 125.965 261.292 117.442 255.509 106.744L253.75 107.696C259.701 118.705 268.038 127.488 278.748 134.033L279.791 132.327ZM255.517 106.759C249.874 95.9071 247.05 84.1129 247.05 71.36H245.05C245.05 84.4205 247.945 96.5329 253.742 107.681L255.517 106.759ZM247.05 71.36C247.05 56.4292 250.815 43.733 258.304 33.2202L256.675 32.0598C248.91 42.9603 245.05 56.0775 245.05 71.36H247.05ZM258.308 33.2149C265.834 22.5046 275.449 14.4812 287.165 9.12959L286.334 7.3104C274.29 12.8121 264.398 21.0688 256.671 32.065L258.308 33.2149ZM287.161 9.1315C299.066 3.75969 311.173 1.07999 323.49 1.07999V-0.920008C310.873 -0.920008 298.486 1.82696 286.338 7.30849L287.161 9.1315ZM323.49 1.07999C337.258 1.07999 349.317 4.33882 359.7 10.828L360.76 9.132C350.022 2.42117 337.587 -0.920008 323.49 -0.920008V1.07999ZM359.708 10.8333C370.117 17.1943 378.055 25.6406 383.543 36.1817L385.317 35.2583C379.657 24.386 371.462 15.6724 360.751 9.12671L359.708 10.8333ZM383.548 36.1912C389.191 46.7543 392.01 57.9593 392.01 69.82H394.01C394.01 57.6274 391.108 46.099 385.312 35.2488L383.548 36.1912ZM392.01 69.82C392.01 82.9801 388.542 95.0412 381.604 106.026L383.295 107.094C390.437 95.7854 394.01 83.3532 394.01 69.82H392.01ZM381.604 106.026C374.658 117.024 365.326 125.707 353.592 132.081L354.547 133.839C366.573 127.306 376.161 118.389 383.295 107.094L381.604 106.026ZM353.588 132.084C342.006 138.453 329.413 141.64 315.79 141.64V143.64C329.74 143.64 342.666 140.373 354.551 133.836L353.588 132.084ZM323.05 138.14C331.468 138.14 339.008 135.73 345.638 130.909L344.461 129.291C338.184 133.856 331.058 136.14 323.05 136.14V138.14ZM345.641 130.906C352.418 125.936 357.655 118.805 361.377 109.574L359.522 108.826C355.911 117.781 350.881 124.584 344.458 129.294L345.641 130.906ZM361.379 109.569C365.103 100.183 366.95 89.0521 366.95 76.2H364.95C364.95 88.8679 363.129 99.7366 359.52 108.831L361.379 109.569ZM366.95 76.2C366.95 62.6058 364.881 50.4529 360.722 39.7575L358.858 40.4824C362.912 50.9071 364.95 62.8075 364.95 76.2H366.95ZM360.723 39.7619C356.562 28.9131 350.522 20.392 342.581 14.249L341.358 15.831C348.963 21.7146 354.804 29.9135 358.856 40.4781L360.723 39.7619ZM342.581 14.249C334.622 8.09179 325.31 5.01999 314.69 5.01999V7.01999C324.896 7.01999 333.77 9.96153 341.358 15.831L342.581 14.249ZM314.69 5.01999C301.048 5.01999 290.464 10.2144 283.074 20.621L284.705 21.779C291.688 11.9456 301.638 7.01999 314.69 7.01999V5.01999ZM283.078 20.6154C275.724 30.8218 272.11 45.0638 272.11 63.22H274.11C274.11 45.2962 277.682 31.5249 284.701 21.7846L283.078 20.6154ZM272.11 63.22C272.11 77.546 274.251 90.4283 278.554 101.852L280.425 101.148C276.221 89.9851 274.11 77.3474 274.11 63.22H272.11ZM278.559 101.867C283.007 113.134 289.033 122.01 296.665 128.445L297.954 126.915C290.626 120.737 284.772 112.16 280.42 101.133L278.559 101.867ZM296.672 128.451C304.471 134.899 313.274 138.14 323.05 138.14V136.14C313.758 136.14 305.402 133.074 297.947 126.909L296.672 128.451ZM562.767 2.5V1.5H562.756L562.745 1.50025L562.767 2.5ZM548.907 12.18L549.71 12.7758L549.715 12.7698L549.719 12.7636L548.907 12.18ZM542.747 144.18L542.551 143.199L542.528 143.204L542.505 143.21L542.747 144.18ZM541.427 143.96L540.676 144.62L540.697 144.644L540.72 144.667L541.427 143.96ZM438.247 26.48L438.998 25.8201L437.247 23.826V26.48H438.247ZM443.087 130.54L443.903 129.961L443.903 129.961L443.087 130.54ZM447.047 139.78L447.114 138.782L447.09 138.781L447.066 138.78L447.047 139.78ZM435.167 139.56L435.186 138.56L435.168 138.56L435.151 138.56L435.167 139.56ZM421.527 139.78L421.511 138.78L421.49 138.78L421.468 138.782L421.527 139.78ZM425.927 130.54L425.161 129.897L425.155 129.905L425.149 129.912L425.927 130.54ZM431.647 19H432.647V18.611L432.384 18.3243L431.647 19ZM419.107 8.21999L418.587 9.07419L418.609 9.08729L418.631 9.09928L419.107 8.21999ZM408.547 2.5L408.571 1.50028L408.559 1.5H408.547V2.5ZM417.787 2.72L417.864 1.72294L417.837 1.72091L417.811 1.72028L417.787 2.72ZM426.147 2.93999V3.94008L426.16 3.93991L426.147 2.93999ZM442.867 2.72L442.88 3.71991L442.909 3.71953L442.938 3.71746L442.867 2.72ZM452.987 3.37999L453.694 2.67288L453.694 2.67288L452.987 3.37999ZM456.067 7.11999L456.871 6.5256L456.866 6.51789L456.86 6.51028L456.067 7.11999ZM461.347 13.94L462.103 13.2848L462.1 13.2815L461.347 13.94ZM537.467 101.72L536.712 102.375L538.467 104.4V101.72H537.467ZM519.207 2.5L519.23 1.50027L519.219 1.5H519.207V2.5ZM528.667 2.72L528.729 1.72194L528.71 1.72072L528.69 1.72027L528.667 2.72ZM552.867 2.72L552.845 1.72024L552.828 1.72061L552.812 1.72154L552.867 2.72ZM562.767 3.5C562.675 3.5 562.575 3.48204 562.476 3.43977C562.379 3.39799 562.305 3.34181 562.252 3.2896C562.157 3.19425 562.139 3.11717 562.148 3.14622C562.155 3.16761 562.172 3.23064 562.186 3.35293C562.199 3.4717 562.207 3.62583 562.207 3.82H564.207C564.207 3.35081 564.171 2.89011 564.046 2.51377C563.929 2.16313 563.578 1.5 562.767 1.5V3.5ZM562.207 3.82C562.207 4.01417 562.199 4.16829 562.186 4.28706C562.172 4.40935 562.155 4.47238 562.148 4.49377C562.139 4.52282 562.157 4.44574 562.252 4.35039C562.305 4.29819 562.379 4.242 562.476 4.20022C562.575 4.15795 562.675 4.13999 562.767 4.13999V6.13999C563.578 6.13999 563.929 5.47686 564.046 5.12622C564.171 4.74988 564.207 4.28918 564.207 3.82H562.207ZM562.767 4.13999C556.584 4.13999 551.66 6.63699 548.095 11.5964L549.719 12.7636C552.901 8.33632 557.217 6.13999 562.767 6.13999V4.13999ZM548.104 11.5841C544.563 16.3571 542.847 22.7506 542.847 30.66H544.847C544.847 23.0227 546.505 17.0963 549.71 12.7758L548.104 11.5841ZM542.847 30.66V143.3H544.847V30.66H542.847ZM542.847 143.3C542.847 143.266 542.855 143.213 542.884 143.155C542.912 143.1 542.942 143.073 542.947 143.069C542.949 143.067 542.926 143.086 542.857 143.114C542.789 143.141 542.689 143.172 542.551 143.199L542.943 145.161C543.383 145.073 543.836 144.92 544.197 144.631C544.599 144.309 544.847 143.847 544.847 143.3H542.847ZM542.505 143.21C542.3 143.261 542.187 143.256 542.141 143.249C542.111 143.243 542.122 143.241 542.134 143.253L540.72 144.667C541.365 145.312 542.232 145.339 542.99 145.15L542.505 143.21ZM542.178 143.3L438.998 25.8201L437.496 27.1399L540.676 144.62L542.178 143.3ZM437.247 26.48V112.06H439.247V26.48H437.247ZM437.247 112.06C437.247 119.961 438.886 126.348 442.272 131.119L443.903 129.961C440.835 125.639 439.247 119.705 439.247 112.06H437.247ZM442.272 131.119C445.691 135.938 450.473 138.36 456.507 138.36V136.36C451.101 136.36 446.936 134.236 443.903 129.961L442.272 131.119ZM456.507 138.36C456.415 138.36 456.315 138.342 456.216 138.3C456.119 138.258 456.045 138.202 455.992 138.15C455.897 138.054 455.879 137.977 455.888 138.006C455.895 138.028 455.912 138.091 455.926 138.213C455.939 138.332 455.947 138.486 455.947 138.68H457.947C457.947 138.211 457.911 137.75 457.786 137.374C457.669 137.023 457.318 136.36 456.507 136.36V138.36ZM455.947 138.68C455.947 138.874 455.939 139.028 455.926 139.147C455.912 139.269 455.895 139.332 455.888 139.354C455.879 139.383 455.897 139.306 455.992 139.21C456.045 139.158 456.119 139.102 456.216 139.06C456.315 139.018 456.415 139 456.507 139V141C457.318 141 457.669 140.337 457.786 139.986C457.911 139.61 457.947 139.149 457.947 138.68H455.947ZM456.507 139C452.407 139 449.28 138.927 447.114 138.782L446.981 140.778C449.214 140.927 452.394 141 456.507 141V139ZM447.066 138.78L435.186 138.56L435.149 140.56L447.029 140.78L447.066 138.78ZM435.151 138.56L421.511 138.78L421.543 140.78L435.183 140.56L435.151 138.56ZM421.468 138.782C419.005 138.927 415.435 139 410.747 139V141C415.446 141 419.063 140.927 421.586 140.778L421.468 138.782ZM410.747 139C410.812 139 410.913 139.019 411.013 139.085C411.106 139.148 411.142 139.214 411.146 139.223C411.149 139.228 411.131 139.193 411.115 139.093C411.099 138.996 411.087 138.861 411.087 138.68H409.087C409.087 139.171 409.143 139.688 409.358 140.117C409.472 140.346 409.645 140.577 409.904 140.75C410.168 140.926 410.462 141 410.747 141V139ZM411.087 138.68C411.087 138.499 411.099 138.364 411.115 138.267C411.131 138.167 411.149 138.132 411.146 138.137C411.142 138.146 411.106 138.212 411.013 138.275C410.913 138.341 410.812 138.36 410.747 138.36V136.36C410.462 136.36 410.168 136.434 409.904 136.61C409.645 136.783 409.472 137.014 409.358 137.243C409.143 137.672 409.087 138.189 409.087 138.68H411.087ZM410.747 138.36C417.467 138.36 422.827 135.977 426.705 131.168L425.149 129.912C421.693 134.197 416.934 136.36 410.747 136.36V138.36ZM426.693 131.183C430.699 126.406 432.647 119.995 432.647 112.06H430.647C430.647 119.672 428.782 125.58 425.161 129.897L426.693 131.183ZM432.647 112.06V19H430.647V112.06H432.647ZM432.384 18.3243C427.519 13.0163 423.249 9.32648 419.583 7.3407L418.631 9.09928C422.005 10.9268 426.095 14.4237 430.91 19.6757L432.384 18.3243ZM419.627 7.36579C416.11 5.22472 412.411 4.13999 408.547 4.13999V6.13999C412.016 6.13999 415.358 7.10859 418.587 9.07419L419.627 7.36579ZM408.547 4.13999C408.639 4.13999 408.739 4.15795 408.838 4.20022C408.935 4.242 409.009 4.29818 409.062 4.35038C409.157 4.44573 409.175 4.52281 409.166 4.49376C409.159 4.47238 409.142 4.40935 409.128 4.28706C409.115 4.16829 409.107 4.01417 409.107 3.82H407.107C407.107 4.28918 407.143 4.74989 407.268 5.12622C407.385 5.47687 407.736 6.13999 408.547 6.13999V4.13999ZM409.107 3.82C409.107 3.62583 409.115 3.4717 409.128 3.35293C409.142 3.23064 409.159 3.16761 409.166 3.14623C409.175 3.11718 409.157 3.19426 409.062 3.28961C409.009 3.34181 408.935 3.39799 408.838 3.43977C408.739 3.48204 408.639 3.5 408.547 3.5V1.5C407.736 1.5 407.385 2.16312 407.268 2.51377C407.143 2.89011 407.107 3.35081 407.107 3.82H409.107ZM408.523 3.49972L417.763 3.71971L417.811 1.72028L408.571 1.50028L408.523 3.49972ZM417.71 3.71705C419.656 3.86672 422.473 3.93999 426.147 3.93999V1.93999C422.487 1.93999 419.731 1.8666 417.864 1.72294L417.71 3.71705ZM426.16 3.93991L442.88 3.71991L442.854 1.72008L426.134 1.94008L426.16 3.93991ZM442.938 3.71746C444.96 3.57303 447.428 3.5 450.347 3.5V1.5C447.399 1.5 444.88 1.57364 442.796 1.72254L442.938 3.71746ZM450.347 3.5C451.366 3.5 451.947 3.75412 452.28 4.0871L453.694 2.67288C452.854 1.83254 451.675 1.5 450.347 1.5V3.5ZM452.28 4.0871C452.813 4.62058 453.802 5.81568 455.274 7.7297L456.86 6.51028C455.399 4.61097 454.334 3.31273 453.694 2.67288L452.28 4.0871ZM455.263 7.71438C457.754 11.0849 459.537 13.3899 460.594 14.5985L462.1 13.2815C461.104 12.1434 459.367 9.90174 456.871 6.5256L455.263 7.71438ZM460.592 14.5951L536.712 102.375L538.223 101.065L462.103 13.2849L460.592 14.5951ZM538.467 101.72V30.66H536.467V101.72H538.467ZM538.467 30.66C538.467 22.6167 536.83 16.1547 533.443 11.3812L531.812 12.5387C534.877 16.8587 536.467 22.8633 536.467 30.66H538.467ZM533.443 11.3812C530.023 6.56228 525.241 4.13999 519.207 4.13999V6.13999C524.613 6.13999 528.778 8.26437 531.812 12.5387L533.443 11.3812ZM519.207 4.13999C519.299 4.13999 519.399 4.15795 519.498 4.20022C519.595 4.24199 519.669 4.29818 519.722 4.35038C519.817 4.44573 519.835 4.52281 519.826 4.49376C519.819 4.47238 519.802 4.40935 519.788 4.28706C519.775 4.16829 519.767 4.01417 519.767 3.82H517.767C517.767 4.28918 517.803 4.74989 517.928 5.12623C518.045 5.47688 518.396 6.13999 519.207 6.13999V4.13999ZM519.767 3.82C519.767 3.62583 519.775 3.4717 519.788 3.35293C519.802 3.23064 519.819 3.16762 519.826 3.14623C519.835 3.11719 519.817 3.19426 519.722 3.28961C519.669 3.34182 519.595 3.398 519.498 3.43977C519.399 3.48204 519.299 3.5 519.207 3.5V1.5C518.396 1.5 518.045 2.16311 517.928 2.51377C517.803 2.8901 517.767 3.35081 517.767 3.82H519.767ZM519.184 3.49973L528.644 3.71973L528.69 1.72027L519.23 1.50027L519.184 3.49973ZM528.605 3.71805C533.31 4.01215 537.293 4.15999 540.547 4.15999V2.15999C537.348 2.15999 533.41 2.0145 528.729 1.72194L528.605 3.71805ZM540.547 4.15999C543.508 4.15999 547.636 4.01214 552.923 3.71846L552.812 1.72154C547.538 2.01451 543.453 2.15999 540.547 2.15999V4.15999ZM552.889 3.71975L562.789 3.49975L562.745 1.50025L552.845 1.72024L552.889 3.71975ZM709.584 139.56L709.632 138.561L709.63 138.561L709.584 139.56ZM682.304 139.56L682.249 138.562L682.246 138.562L682.304 139.56ZM678.564 136.26L678.978 137.17L678.995 137.163L679.012 137.154L678.564 136.26ZM676.804 119.32L677.699 118.873L677.696 118.868L676.804 119.32ZM653.924 74.22L654.816 73.7676L654.538 73.22H653.924V74.22ZM614.764 74.22V73.22H614.119L613.853 73.8079L614.764 74.22ZM599.144 108.76L598.233 108.348L598.232 108.351L599.144 108.76ZM601.784 132.96L601.16 133.741L601.167 133.747L601.175 133.753L601.784 132.96ZM605.524 139.56L605.583 138.562L605.577 138.561L605.524 139.56ZM576.704 139.56L576.652 138.561L576.646 138.562L576.704 139.56ZM574.944 134.94L575.445 135.805L575.462 135.796L575.478 135.785L574.944 134.94ZM583.304 125.92L584.141 126.468L584.145 126.462L584.149 126.455L583.304 125.92ZM593.204 106.56L592.294 106.146L592.292 106.151L593.204 106.56ZM640.944 1.62L640.112 1.0653L640.068 1.13245L640.034 1.20591L640.944 1.62ZM644.904 1.62L643.956 1.93623L643.979 2.00674L644.013 2.073L644.904 1.62ZM699.904 109.86L700.801 109.418L700.796 109.407L699.904 109.86ZM712.664 131.42L713.426 130.772L713.426 130.772L712.664 131.42ZM617.624 68.06L616.712 67.6501L616.079 69.06H617.624V68.06ZM650.844 68.06V69.06H652.472L651.737 67.6083L650.844 68.06ZM633.244 33.3L634.137 32.8483L633.191 30.98L632.332 32.8901L633.244 33.3ZM723.224 138.36C723.31 138.36 723.339 138.373 723.334 138.371C723.323 138.367 723.3 138.352 723.281 138.33C723.266 138.312 723.277 138.315 723.292 138.37C723.308 138.427 723.324 138.526 723.324 138.68H725.324C725.324 138.126 725.213 137.524 724.818 137.05C724.393 136.541 723.798 136.36 723.224 136.36V138.36ZM723.324 138.68C723.324 138.834 723.308 138.933 723.292 138.99C723.277 139.045 723.266 139.048 723.281 139.03C723.3 139.008 723.323 138.993 723.334 138.989C723.339 138.987 723.31 139 723.224 139V141C723.798 141 724.393 140.819 724.818 140.31C725.213 139.836 725.324 139.234 725.324 138.68H723.324ZM723.224 139C720.316 139 715.789 138.854 709.632 138.561L709.537 140.559C715.699 140.852 720.266 141 723.224 141V139ZM709.63 138.561C703.176 138.268 698.536 138.12 695.724 138.12V140.12C698.486 140.12 703.086 140.266 709.539 140.559L709.63 138.561ZM695.724 138.12C692.033 138.12 687.54 138.268 682.249 138.562L682.36 140.558C687.629 140.266 692.082 140.12 695.724 140.12V138.12ZM682.246 138.562C677.267 138.855 673.329 139 670.424 139V141C673.386 141 677.368 140.852 682.363 140.558L682.246 138.562ZM670.424 139C670.403 139 670.433 138.997 670.487 139.023C670.544 139.052 670.581 139.092 670.596 139.115C670.608 139.132 670.593 139.117 670.576 139.041C670.559 138.964 670.544 138.848 670.544 138.68H668.544C668.544 139.2 668.625 139.764 668.932 140.225C669.287 140.757 669.84 141 670.424 141V139ZM670.544 138.68C670.544 138.512 670.559 138.396 670.576 138.319C670.593 138.243 670.608 138.228 670.596 138.245C670.581 138.268 670.544 138.308 670.487 138.337C670.433 138.363 670.403 138.36 670.424 138.36V136.36C669.84 136.36 669.287 136.603 668.932 137.135C668.625 137.596 668.544 138.16 668.544 138.68H670.544ZM670.424 138.36C674.253 138.36 677.155 137.999 678.978 137.17L678.151 135.35C676.747 135.987 674.222 136.36 670.424 136.36V138.36ZM679.012 137.154C680.036 136.642 680.85 135.934 681.402 135.014C681.952 134.097 682.204 133.031 682.204 131.86H680.204C680.204 132.742 680.016 133.436 679.687 133.986C679.359 134.532 678.853 134.998 678.117 135.366L679.012 137.154ZM682.204 131.86C682.204 130.445 681.794 128.651 681.048 126.524C680.296 124.38 679.176 121.828 677.699 118.873L675.91 119.767C677.366 122.679 678.446 125.15 679.161 127.186C679.881 129.239 680.204 130.781 680.204 131.86H682.204ZM677.696 118.868L654.816 73.7676L653.033 74.6724L675.913 119.772L677.696 118.868ZM653.924 73.22H614.764V75.22H653.924V73.22ZM613.853 73.8079L598.233 108.348L600.056 109.172L615.676 74.632L613.853 73.8079ZM598.232 108.351C596.283 112.699 595.284 116.8 595.284 120.64H597.284C597.284 117.147 598.193 113.327 600.057 109.169L598.232 108.351ZM595.284 120.64C595.284 126.181 597.224 130.593 601.16 133.741L602.409 132.179C599.011 129.461 597.284 125.659 597.284 120.64H595.284ZM601.175 133.753C605.21 136.857 610.506 138.36 616.964 138.36V136.36C610.81 136.36 605.985 134.93 602.394 132.167L601.175 133.753ZM616.964 138.36C617.05 138.36 617.079 138.373 617.074 138.371C617.063 138.367 617.039 138.352 617.021 138.33C617.006 138.312 617.017 138.315 617.032 138.37C617.048 138.427 617.064 138.526 617.064 138.68H619.064C619.064 138.126 618.953 137.524 618.558 137.05C618.133 136.541 617.538 136.36 616.964 136.36V138.36ZM617.064 138.68C617.064 138.834 617.048 138.933 617.032 138.99C617.017 139.045 617.006 139.048 617.021 139.03C617.039 139.008 617.063 138.993 617.074 138.989C617.079 138.987 617.05 139 616.964 139V141C617.538 141 618.133 140.819 618.558 140.31C618.953 139.836 619.064 139.234 619.064 138.68H617.064ZM616.964 139C614.354 139 610.564 138.855 605.583 138.562L605.466 140.558C610.458 140.852 614.295 141 616.964 141V139ZM605.577 138.561C599.992 138.267 595.134 138.12 591.004 138.12V140.12C595.089 140.12 599.91 140.266 605.472 140.559L605.577 138.561ZM591.004 138.12C587.021 138.12 582.236 138.267 576.652 138.561L576.757 140.559C582.319 140.266 587.067 140.12 591.004 140.12V138.12ZM576.646 138.562C571.668 138.855 567.657 139 564.604 139V141C567.712 141 571.767 140.852 576.763 140.558L576.646 138.562ZM564.604 139C564.583 139 564.613 138.997 564.667 139.023C564.724 139.052 564.761 139.092 564.776 139.115C564.788 139.132 564.773 139.117 564.756 139.041C564.739 138.964 564.724 138.848 564.724 138.68H562.724C562.724 139.2 562.805 139.764 563.112 140.225C563.467 140.757 564.02 141 564.604 141V139ZM564.724 138.68C564.724 138.512 564.739 138.396 564.756 138.319C564.773 138.243 564.788 138.228 564.776 138.245C564.761 138.268 564.724 138.308 564.667 138.337C564.613 138.363 564.583 138.36 564.604 138.36V136.36C564.02 136.36 563.467 136.603 563.112 137.135C562.805 137.596 562.724 138.16 562.724 138.68H564.724ZM564.604 138.36C568.839 138.36 572.47 137.528 575.445 135.805L574.443 134.075C571.845 135.579 568.583 136.36 564.604 136.36V138.36ZM575.478 135.785C578.434 133.919 581.314 130.783 584.141 126.468L582.468 125.372C579.721 129.564 577.028 132.441 574.41 134.095L575.478 135.785ZM584.149 126.455C586.974 121.995 590.297 115.491 594.117 106.969L592.292 106.151C588.485 114.642 585.208 121.045 582.46 125.385L584.149 126.455ZM594.115 106.974L641.855 2.03409L640.034 1.20591L592.294 106.146L594.115 106.974ZM641.776 2.1747C641.766 2.19078 641.79 2.1356 641.976 2.07368C642.168 2.0097 642.472 1.95999 642.924 1.95999V-0.0400064C641.859 -0.0400064 640.71 0.168407 640.112 1.0653L641.776 2.1747ZM642.924 1.95999C643.467 1.95999 643.801 2.0131 643.983 2.07368C644.169 2.13573 644.024 2.14151 643.956 1.93623L645.853 1.30377C645.638 0.658483 645.089 0.334263 644.616 0.176312C644.137 0.0168836 643.555 -0.0400064 642.924 -0.0400064V1.95999ZM644.013 2.073L699.013 110.313L700.796 109.407L645.796 1.167L644.013 2.073ZM699.007 110.302C704.144 120.722 708.443 128.006 711.903 132.068L713.426 130.772C710.139 126.914 705.932 119.825 700.801 109.418L699.007 110.302ZM711.903 132.068C715.384 136.155 719.158 138.36 723.224 138.36V136.36C719.958 136.36 716.691 134.605 713.426 130.772L711.903 132.068ZM617.624 69.06H650.844V67.06H617.624V69.06ZM651.737 67.6083L634.137 32.8483L632.352 33.7517L649.952 68.5117L651.737 67.6083ZM632.332 32.8901L616.712 67.6501L618.537 68.4699L634.157 33.7099L632.332 32.8901ZM821.525 121.96L820.714 122.546L820.718 122.551L821.525 121.96ZM789.625 71.14L790.492 70.642L790.161 70.0652L789.501 70.1477L789.625 71.14ZM772.465 71.14L772.527 70.1419L771.465 70.0755V71.14H772.465ZM773.565 132.08L772.623 132.416L772.623 132.416L773.565 132.08ZM777.745 136.26L777.409 137.202L777.419 137.205L777.429 137.209L777.745 136.26ZM776.645 139.78L776.697 138.781L776.678 138.78L776.658 138.78L776.645 139.78ZM759.925 139.56L759.938 138.56L759.925 138.56L759.911 138.56L759.925 139.56ZM743.865 139.78L743.851 138.78L743.833 138.78L743.815 138.781L743.865 139.78ZM742.105 136.26L741.789 135.311L741.779 135.315L741.769 135.318L742.105 136.26ZM746.505 132.08L745.576 131.709L745.569 131.726L745.563 131.744L746.505 132.08ZM746.725 10.64L745.783 10.9763L745.783 10.9763L746.725 10.64ZM742.325 6.45999L741.953 7.38847L741.981 7.39938L742.009 7.40867L742.325 6.45999ZM732.205 2.5L732.224 1.50018L732.214 1.5H732.205V2.5ZM743.865 2.72L743.908 1.72094L743.896 1.72041L743.884 1.72018L743.865 2.72ZM774.005 2.5L774.09 3.49636L774.095 3.49589L774.005 2.5ZM780.165 2.05999L780.109 1.06153L780.106 1.06172L780.165 2.05999ZM820.645 9.31999L820.083 10.1469L820.092 10.1533L820.102 10.1596L820.645 9.31999ZM825.705 49.14L824.873 48.5853L824.873 48.5853L825.705 49.14ZM809.645 64.1L809.145 63.2341L808.242 63.7558L808.801 64.636L809.645 64.1ZM839.125 107.44L838.329 108.045L838.334 108.052L839.125 107.44ZM860.465 130.32L859.847 131.106L859.857 131.114L859.868 131.122L860.465 130.32ZM772.465 64.76H771.465V65.6071L772.3 65.7464L772.465 64.76ZM797.765 63.22L798.229 64.1058L798.229 64.1058L797.765 63.22ZM804.365 54.86L803.427 54.5127L803.421 54.5281L803.416 54.5438L804.365 54.86ZM801.285 13.28L800.494 13.8922L800.494 13.8922L801.285 13.28ZM775.545 9.76L776.276 10.4423L776.276 10.4423L775.545 9.76ZM878.725 138.36C878.633 138.36 878.533 138.342 878.434 138.3C878.337 138.258 878.262 138.202 878.21 138.15C878.115 138.054 878.096 137.977 878.106 138.006C878.113 138.028 878.13 138.091 878.143 138.213C878.157 138.332 878.165 138.486 878.165 138.68H880.165C880.165 138.211 880.129 137.75 880.004 137.374C879.887 137.023 879.536 136.36 878.725 136.36V138.36ZM878.165 138.68C878.165 138.874 878.157 139.028 878.143 139.147C878.13 139.269 878.113 139.332 878.106 139.354C878.096 139.383 878.115 139.306 878.21 139.21C878.262 139.158 878.337 139.102 878.434 139.06C878.533 139.018 878.633 139 878.725 139V141C879.536 141 879.887 140.337 880.004 139.986C880.129 139.61 880.165 139.149 880.165 138.68H878.165ZM878.725 139H839.565V141H878.725V139ZM839.565 139C839.045 139 838.262 138.747 837.168 138.034C836.094 137.335 834.82 136.26 833.342 134.783C830.389 131.83 826.72 127.367 822.332 121.369L820.718 122.551C825.129 128.579 828.868 133.137 831.928 136.197C833.457 137.726 834.841 138.906 836.077 139.711C837.292 140.502 838.471 141 839.565 141V139ZM822.335 121.374C813.565 109.241 802.951 92.3354 790.492 70.642L788.758 71.638C801.232 93.3579 811.885 110.332 820.714 122.546L822.335 121.374ZM789.501 70.1477C788.39 70.2866 786.752 70.36 784.565 70.36V72.36C786.778 72.36 788.513 72.2867 789.749 72.1323L789.501 70.1477ZM784.565 70.36C778.845 70.36 774.839 70.2865 772.527 70.1419L772.402 72.138C774.784 72.2869 778.845 72.36 784.565 72.36V70.36ZM771.465 71.14V122.18H773.465V71.14H771.465ZM771.465 122.18C771.465 126.745 771.828 130.191 772.623 132.416L774.507 131.744C773.835 129.862 773.465 126.709 773.465 122.18H771.465ZM772.623 132.416C773.457 134.752 775.073 136.368 777.409 137.202L778.081 135.318C776.31 134.686 775.139 133.515 774.507 131.744L772.623 132.416ZM777.429 137.209C779.789 137.995 783.371 138.36 788.085 138.36V136.36C783.412 136.36 780.101 135.991 778.061 135.311L777.429 137.209ZM788.085 138.36C787.993 138.36 787.893 138.342 787.794 138.3C787.697 138.258 787.622 138.202 787.57 138.15C787.475 138.054 787.456 137.977 787.466 138.006C787.473 138.028 787.49 138.091 787.503 138.213C787.517 138.332 787.525 138.486 787.525 138.68H789.525C789.525 138.211 789.489 137.75 789.364 137.374C789.247 137.023 788.896 136.36 788.085 136.36V138.36ZM787.525 138.68C787.525 138.874 787.517 139.028 787.503 139.147C787.49 139.269 787.473 139.332 787.466 139.354C787.456 139.383 787.475 139.306 787.57 139.21C787.622 139.158 787.697 139.102 787.794 139.06C787.893 139.018 787.993 139 788.085 139V141C788.896 141 789.247 140.337 789.364 139.986C789.489 139.61 789.525 139.149 789.525 138.68H787.525ZM788.085 139C783.252 139 779.458 138.927 776.697 138.781L776.592 140.779C779.405 140.927 783.238 141 788.085 141V139ZM776.658 138.78L759.938 138.56L759.912 140.56L776.632 140.78L776.658 138.78ZM759.911 138.56L743.851 138.78L743.879 140.78L759.939 140.56L759.911 138.56ZM743.815 138.781C740.906 138.927 736.965 139 731.985 139V141C736.978 141 740.957 140.927 743.915 140.779L743.815 138.781ZM731.985 139C732.05 139 732.151 139.019 732.251 139.085C732.344 139.148 732.38 139.214 732.384 139.223C732.387 139.228 732.369 139.193 732.352 139.093C732.336 138.996 732.325 138.861 732.325 138.68H730.325C730.325 139.171 730.381 139.688 730.595 140.117C730.71 140.346 730.883 140.577 731.141 140.75C731.406 140.926 731.7 141 731.985 141V139ZM732.325 138.68C732.325 138.499 732.336 138.364 732.352 138.267C732.369 138.167 732.387 138.132 732.384 138.137C732.38 138.146 732.344 138.212 732.251 138.275C732.151 138.341 732.05 138.36 731.985 138.36V136.36C731.7 136.36 731.406 136.434 731.141 136.61C730.883 136.783 730.71 137.014 730.595 137.243C730.381 137.672 730.325 138.189 730.325 138.68H732.325ZM731.985 138.36C736.692 138.36 740.214 137.997 742.441 137.202L741.769 135.318C739.889 135.99 736.665 136.36 731.985 136.36V138.36ZM742.421 137.209C744.891 136.385 746.603 134.78 747.447 132.416L745.563 131.744C744.94 133.487 743.719 134.668 741.789 135.311L742.421 137.209ZM747.433 132.451C748.385 130.071 748.825 126.617 748.825 122.18H746.825C746.825 126.543 746.384 129.689 745.576 131.709L747.433 132.451ZM748.825 122.18V20.32H746.825V122.18H748.825ZM748.825 20.32C748.825 15.8976 748.461 12.5267 747.667 10.3037L745.783 10.9763C746.456 12.8599 746.825 15.9424 746.825 20.32H748.825ZM747.667 10.3037C746.823 7.94032 745.111 6.33467 742.641 5.5113L742.009 7.40867C743.939 8.05197 745.16 9.23299 745.783 10.9763L747.667 10.3037ZM742.696 5.53151C740.314 4.57855 736.784 4.13999 732.205 4.13999V6.13999C736.719 6.13999 739.936 6.58143 741.953 7.38847L742.696 5.53151ZM732.205 4.13999C732.297 4.13999 732.397 4.15795 732.496 4.20022C732.593 4.242 732.667 4.29818 732.719 4.35038C732.815 4.44573 732.833 4.52281 732.824 4.49376C732.816 4.47238 732.8 4.40935 732.786 4.28706C732.773 4.16829 732.765 4.01417 732.765 3.82H730.765C730.765 4.28918 730.801 4.74989 730.926 5.12622C731.043 5.47687 731.394 6.13999 732.205 6.13999V4.13999ZM732.765 3.82C732.765 3.62583 732.773 3.4717 732.786 3.35293C732.8 3.23064 732.816 3.16761 732.824 3.14623C732.833 3.11718 732.815 3.19426 732.719 3.28961C732.667 3.34181 732.593 3.39799 732.496 3.43977C732.397 3.48204 732.297 3.5 732.205 3.5V1.5C731.394 1.5 731.043 2.16312 730.926 2.51377C730.801 2.89011 730.765 3.35081 730.765 3.82H732.765ZM732.186 3.49982L743.846 3.71982L743.884 1.72018L732.224 1.50018L732.186 3.49982ZM743.821 3.71905C750.574 4.01264 755.944 4.15999 759.925 4.15999V2.15999C755.986 2.15999 750.649 2.01401 743.908 1.72094L743.821 3.71905ZM759.925 4.15999C764.212 4.15999 768.934 3.93829 774.09 3.49635L773.919 1.50365C768.809 1.9417 764.144 2.15999 759.925 2.15999V4.15999ZM774.095 3.49589C775.694 3.35055 777.736 3.2046 780.224 3.05827L780.106 1.06172C777.607 1.20871 775.542 1.3561 773.914 1.50411L774.095 3.49589ZM780.22 3.05845C782.837 2.91309 785.898 2.84 789.405 2.84V0.839995C785.872 0.839995 782.773 0.91357 780.109 1.06153L780.22 3.05845ZM789.405 2.84C802.795 2.84 812.981 5.31772 820.083 10.1469L821.207 8.49306C813.642 3.34894 803.001 0.839995 789.405 0.839995V2.84ZM820.102 10.1596C827.301 14.8181 830.865 21.3243 830.865 29.78H832.865C832.865 20.6357 828.949 13.5019 821.188 8.48042L820.102 10.1596ZM830.865 29.78C830.865 36.3101 828.881 42.5729 824.873 48.5853L826.537 49.6947C830.742 43.3871 832.865 36.7432 832.865 29.78H830.865ZM824.873 48.5853C820.854 54.6136 815.616 59.4953 809.145 63.2341L810.145 64.9659C816.874 61.078 822.342 55.9864 826.537 49.6947L824.873 48.5853ZM808.801 64.636C820.54 83.1263 830.384 97.5997 838.329 108.045L839.921 106.835C832.025 96.4536 822.216 82.0337 810.489 63.564L808.801 64.636ZM838.334 108.052C846.422 118.493 853.594 126.193 859.847 131.106L861.083 129.534C855.016 124.767 847.961 117.214 839.915 106.828L838.334 108.052ZM859.868 131.122C866.289 135.901 872.58 138.36 878.725 138.36V136.36C873.136 136.36 867.254 134.126 861.062 129.518L859.868 131.122ZM772.3 65.7464C775.891 66.3449 780.203 66.64 785.225 66.64V64.64C780.273 64.64 776.078 64.3484 772.629 63.7736L772.3 65.7464ZM785.225 66.64C790.59 66.64 794.95 65.8231 798.229 64.1058L797.301 62.3342C794.419 63.8436 790.42 64.64 785.225 64.64V66.64ZM798.229 64.1058C801.583 62.3491 803.929 59.3293 805.314 55.1762L803.416 54.5438C802.161 58.3107 800.107 60.8642 797.301 62.3342L798.229 64.1058ZM805.303 55.2073C806.829 51.0847 807.565 45.374 807.565 38.14H805.565C805.565 45.2793 804.834 50.7153 803.427 54.5127L805.303 55.2073ZM807.565 38.14C807.565 26.0903 805.816 17.4998 802.076 12.6678L800.494 13.8922C803.793 18.1536 805.565 26.1364 805.565 38.14H807.565ZM802.076 12.6678C798.337 7.83826 792.962 5.45999 786.105 5.45999V7.45999C792.447 7.45999 797.193 9.62838 800.494 13.8922L802.076 12.6678ZM786.105 5.45999C781.015 5.45999 777.149 6.57548 774.814 9.07768L776.276 10.4423C778.047 8.5445 781.221 7.45999 786.105 7.45999V5.45999ZM774.814 9.07768C772.501 11.5561 771.465 15.539 771.465 20.76H773.465C773.465 15.7143 774.482 12.3639 776.276 10.4423L774.814 9.07768ZM771.465 20.76V64.76H773.465V20.76H771.465ZM931.578 140.22L931.646 139.222L931.641 139.222L931.578 140.22ZM922.778 139.78L922.735 140.779L922.736 140.779L922.778 139.78ZM911.338 139.56V138.56L911.325 138.56L911.338 139.56ZM895.058 139.78L895.045 138.78L895.026 138.78L895.008 138.781L895.058 139.78ZM893.518 136.26L893.834 137.209L893.834 137.209L893.518 136.26ZM897.918 132.08L896.99 131.709L896.983 131.726L896.976 131.744L897.918 132.08ZM897.918 10.64L896.976 10.9763L896.987 11.0055L896.999 11.0339L897.918 10.64ZM893.518 6.45999L893.124 7.37913L893.162 7.39552L893.202 7.40867L893.518 6.45999ZM883.618 2.5L883.637 1.50018L883.628 1.5H883.618V2.5ZM895.278 2.72L895.322 1.72094L895.309 1.72041L895.297 1.72018L895.278 2.72ZM929.818 2.5L929.78 1.50074L929.764 1.50134L929.749 1.50242L929.818 2.5ZM984.598 10.86L984.142 11.7498L984.146 11.7522L984.598 10.86ZM1011.44 34.84L1010.59 35.3689L1010.59 35.3689L1011.44 34.84ZM1011 106.78L1010.14 106.265L1010.14 106.269L1011 106.78ZM984.598 132.08L985.069 132.962L985.073 132.96L984.598 132.08ZM970.958 128.78L971.505 129.617L971.511 129.613L971.517 129.609L970.958 128.78ZM987.678 107.44L986.762 107.039L986.757 107.051L987.678 107.44ZM988.118 39.9L987.181 40.2482L987.182 40.2526L988.118 39.9ZM971.838 15.7L971.198 16.4682L971.198 16.4682L971.838 15.7ZM928.718 9.53999L928.256 8.6534L928.256 8.6534L928.718 9.53999ZM928.278 132.3L927.649 133.077L927.66 133.087L927.672 133.095L928.278 132.3ZM948.298 139.88C943.634 139.88 938.085 139.661 931.646 139.222L931.51 141.218C937.978 141.659 943.575 141.88 948.298 141.88V139.88ZM931.641 139.222C929.284 139.075 926.344 138.928 922.82 138.781L922.736 140.779C926.253 140.926 929.178 141.072 931.516 141.218L931.641 139.222ZM922.822 138.781C919.431 138.634 915.602 138.56 911.338 138.56V140.56C915.58 140.56 919.379 140.633 922.735 140.779L922.822 138.781ZM911.325 138.56L895.045 138.78L895.072 140.78L911.352 140.56L911.325 138.56ZM895.008 138.781C892.099 138.927 888.158 139 883.178 139V141C888.172 141 892.151 140.927 895.108 140.779L895.008 138.781ZM883.178 139C883.27 139 883.37 139.018 883.469 139.06C883.566 139.102 883.641 139.158 883.693 139.21C883.788 139.306 883.806 139.383 883.797 139.354C883.79 139.332 883.773 139.269 883.76 139.147C883.746 139.028 883.738 138.874 883.738 138.68H881.738C881.738 139.149 881.774 139.61 881.899 139.986C882.016 140.337 882.367 141 883.178 141V139ZM883.738 138.68C883.738 138.486 883.746 138.332 883.76 138.213C883.773 138.091 883.79 138.028 883.797 138.006C883.806 137.977 883.788 138.054 883.693 138.15C883.641 138.202 883.566 138.258 883.469 138.3C883.37 138.342 883.27 138.36 883.178 138.36V136.36C882.367 136.36 882.016 137.023 881.899 137.374C881.774 137.75 881.738 138.211 881.738 138.68H883.738ZM883.178 138.36C887.892 138.36 891.474 137.995 893.834 137.209L893.202 135.311C891.162 135.991 887.851 136.36 883.178 136.36V138.36ZM893.834 137.209C896.304 136.385 898.016 134.78 898.86 132.416L896.976 131.744C896.354 133.487 895.132 134.668 893.202 135.311L893.834 137.209ZM898.847 132.451C899.799 130.071 900.238 126.617 900.238 122.18H898.238C898.238 126.543 897.798 129.689 896.99 131.709L898.847 132.451ZM900.238 122.18V20.32H898.238V122.18H900.238ZM900.238 20.32C900.238 15.8904 899.801 12.4939 898.837 10.2461L896.999 11.0339C897.796 12.8928 898.238 15.9496 898.238 20.32H900.238ZM898.86 10.3037C898.016 7.94032 896.304 6.33467 893.834 5.5113L893.202 7.40867C895.132 8.05197 896.354 9.23299 896.976 10.9763L898.86 10.3037ZM893.912 5.54084C891.662 4.57643 888.189 4.13999 883.618 4.13999V6.13999C888.141 6.13999 891.268 6.58355 893.124 7.37913L893.912 5.54084ZM883.618 4.13999C883.683 4.13999 883.785 4.15911 883.884 4.22544C883.977 4.2876 884.013 4.35415 884.018 4.36278C884.02 4.36749 884.002 4.3326 883.986 4.23309C883.97 4.13628 883.958 4.00101 883.958 3.82H881.958C881.958 4.31107 882.014 4.82825 882.229 5.25721C882.343 5.48584 882.516 5.71739 882.775 5.88954C883.039 6.06587 883.333 6.13999 883.618 6.13999V4.13999ZM883.958 3.82C883.958 3.63898 883.97 3.50371 883.986 3.4069C884.002 3.30739 884.02 3.2725 884.018 3.27721C884.013 3.28584 883.977 3.35239 883.884 3.41455C883.785 3.48088 883.683 3.5 883.618 3.5V1.5C883.333 1.5 883.039 1.57412 882.775 1.75045C882.516 1.9226 882.343 2.15415 882.229 2.38278C882.014 2.81175 881.958 3.32892 881.958 3.82H883.958ZM883.599 3.49982L895.259 3.71982L895.297 1.72018L883.637 1.50018L883.599 3.49982ZM895.235 3.71905C901.987 4.01264 907.357 4.15999 911.338 4.15999V2.15999C907.399 2.15999 902.062 2.01401 895.322 1.72094L895.235 3.71905ZM911.338 4.15999C917.376 4.15999 923.559 3.9391 929.888 3.49758L929.749 1.50242C923.464 1.94089 917.327 2.15999 911.338 2.15999V4.15999ZM929.857 3.49926C937.486 3.20582 942.6 3.05999 945.218 3.05999V1.05999C942.556 1.05999 937.404 1.2075 929.78 1.50074L929.857 3.49926ZM945.218 3.05999C959.897 3.05999 972.863 5.96587 984.142 11.7498L985.054 9.97018C973.453 4.02079 960.166 1.05999 945.218 1.05999V3.05999ZM984.146 11.7522C995.585 17.5439 1004.39 25.4177 1010.59 35.3689L1012.29 34.3111C1005.87 24.0223 996.785 15.9094 985.05 9.96784L984.146 11.7522ZM1010.59 35.3689C1016.79 45.3209 1019.9 56.5023 1019.9 68.94H1021.9C1021.9 56.151 1018.7 44.5991 1012.29 34.3111L1010.59 35.3689ZM1019.9 68.94C1019.9 83.0057 1016.64 95.4375 1010.14 106.266L1011.86 107.294C1018.56 96.1225 1021.9 83.3276 1021.9 68.94H1019.9ZM1010.14 106.269C1003.78 116.966 995.111 125.272 984.123 131.2L985.073 132.96C996.378 126.861 1005.31 118.3 1011.86 107.291L1010.14 106.269ZM984.128 131.198C973.281 136.983 961.344 139.88 948.298 139.88V141.88C961.652 141.88 973.915 138.911 985.069 132.962L984.128 131.198ZM946.098 136.82C955.66 136.82 964.141 134.427 971.505 129.617L970.411 127.943C963.402 132.52 955.31 134.82 946.098 134.82V136.82ZM971.517 129.609C978.891 124.643 984.577 117.362 988.599 107.829L986.757 107.051C982.859 116.291 977.398 123.237 970.4 127.951L971.517 129.609ZM988.594 107.841C992.769 98.2982 994.838 86.9349 994.838 73.78H992.838C992.838 86.7318 990.8 97.8085 986.762 107.039L988.594 107.841ZM994.838 73.78C994.838 61.211 992.916 49.7959 989.054 39.5474L987.182 40.2526C990.947 50.2441 992.838 61.4156 992.838 73.78H994.838ZM989.056 39.5518C985.193 29.1536 979.676 20.9301 972.478 14.9318L971.198 16.4682C978.08 22.2032 983.416 30.1131 987.181 40.2482L989.056 39.5518ZM972.478 14.9318C965.257 8.91399 956.89 5.9 947.418 5.9V7.9C956.426 7.9 964.339 10.7527 971.198 16.4682L972.478 14.9318ZM947.418 5.9C942.843 5.9 938.962 6.12111 935.783 6.56981C932.618 7.01672 930.088 7.69751 928.256 8.6534L929.181 10.4266C930.722 9.62247 932.995 8.98326 936.063 8.55018C939.118 8.11888 942.9 7.9 947.418 7.9V5.9ZM928.256 8.6534C924.401 10.6643 922.658 14.875 922.658 20.76H924.658C924.658 15.205 926.288 11.9357 929.181 10.4266L928.256 8.6534ZM922.658 20.76V119.76H924.658V20.76H922.658ZM922.658 119.76C922.658 125.779 924.239 130.317 927.649 133.077L928.907 131.523C926.157 129.297 924.658 125.474 924.658 119.76H922.658ZM927.672 133.095C929.383 134.399 931.806 135.32 934.849 135.921C937.905 136.525 941.66 136.82 946.098 136.82V134.82C941.737 134.82 938.122 134.529 935.237 133.959C932.341 133.387 930.253 132.548 928.884 131.505L927.672 133.095ZM1075.7 133.18L1075.17 134.033L1075.18 134.038L1075.19 134.042L1075.7 133.18ZM1051.06 107.22L1050.17 107.681L1050.17 107.688L1050.18 107.696L1051.06 107.22ZM1053.92 32.64L1054.73 33.2202L1054.73 33.2149L1053.92 32.64ZM1083.18 8.21999L1082.76 7.30848L1082.76 7.3104L1083.18 8.21999ZM1156.66 9.98L1156.13 10.828L1156.13 10.8333L1156.66 9.98ZM1180.86 35.72L1179.97 36.1818L1179.97 36.1912L1180.86 35.72ZM1178.88 106.56L1178.03 106.026L1178.88 106.56ZM1150.5 132.96L1150.02 132.081L1150.01 132.084L1150.5 132.96ZM1141.48 130.1L1142.06 130.909L1142.07 130.906L1141.48 130.1ZM1156.88 109.2L1157.8 109.574L1157.8 109.569L1156.88 109.2ZM1156.22 40.12L1155.28 40.4781L1155.28 40.4824L1156.22 40.12ZM1138.4 15.04L1137.78 15.831L1137.78 15.831L1138.4 15.04ZM1080.32 21.2L1081.13 21.7846L1081.13 21.779L1080.32 21.2ZM1075.92 101.5L1074.98 101.852L1074.98 101.86L1074.99 101.867L1075.92 101.5ZM1093.74 127.68L1093.09 128.445L1093.1 128.451L1093.74 127.68ZM1112.22 141.64C1098.74 141.64 1086.74 138.526 1076.2 132.318L1075.19 134.042C1086.06 140.448 1098.41 143.64 1112.22 143.64V141.64ZM1076.22 132.327C1065.81 125.965 1057.72 117.442 1051.94 106.744L1050.18 107.696C1056.13 118.705 1064.46 127.488 1075.17 134.033L1076.22 132.327ZM1051.94 106.759C1046.3 95.9071 1043.48 84.1129 1043.48 71.36H1041.48C1041.48 84.4205 1044.37 96.5329 1050.17 107.681L1051.94 106.759ZM1043.48 71.36C1043.48 56.4292 1047.24 43.733 1054.73 33.2202L1053.1 32.0598C1045.34 42.9603 1041.48 56.0775 1041.48 71.36H1043.48ZM1054.73 33.2149C1062.26 22.5046 1071.88 14.4812 1083.59 9.12959L1082.76 7.3104C1070.72 12.8121 1060.82 21.0688 1053.1 32.065L1054.73 33.2149ZM1083.59 9.1315C1095.49 3.75969 1107.6 1.07999 1119.92 1.07999V-0.920008C1107.3 -0.920008 1094.91 1.82696 1082.76 7.30849L1083.59 9.1315ZM1119.92 1.07999C1133.68 1.07999 1145.74 4.33882 1156.13 10.828L1157.19 9.132C1146.45 2.42117 1134.01 -0.920008 1119.92 -0.920008V1.07999ZM1156.13 10.8333C1166.54 17.1943 1174.48 25.6406 1179.97 36.1817L1181.74 35.2583C1176.08 24.386 1167.89 15.6724 1157.18 9.12671L1156.13 10.8333ZM1179.97 36.1912C1185.62 46.7543 1188.44 57.9593 1188.44 69.82H1190.44C1190.44 57.6274 1187.53 46.099 1181.74 35.2488L1179.97 36.1912ZM1188.44 69.82C1188.44 82.9801 1184.97 95.0412 1178.03 106.026L1179.72 107.094C1186.86 95.7854 1190.44 83.3532 1190.44 69.82H1188.44ZM1178.03 106.026C1171.08 117.024 1161.75 125.707 1150.02 132.081L1150.97 133.839C1163 127.306 1172.59 118.389 1179.72 107.094L1178.03 106.026ZM1150.01 132.084C1138.43 138.453 1125.84 141.64 1112.22 141.64V143.64C1126.17 143.64 1139.09 140.373 1150.98 133.836L1150.01 132.084ZM1119.48 138.14C1127.89 138.14 1135.43 135.73 1142.06 130.909L1140.89 129.291C1134.61 133.856 1127.48 136.14 1119.48 136.14V138.14ZM1142.07 130.906C1148.84 125.936 1154.08 118.805 1157.8 109.574L1155.95 108.826C1152.34 117.781 1147.31 124.584 1140.88 129.294L1142.07 130.906ZM1157.8 109.569C1161.53 100.183 1163.38 89.0521 1163.38 76.2H1161.38C1161.38 88.8679 1159.55 99.7366 1155.95 108.831L1157.8 109.569ZM1163.38 76.2C1163.38 62.6058 1161.31 50.4529 1157.15 39.7575L1155.28 40.4824C1159.34 50.9071 1161.38 62.8075 1161.38 76.2H1163.38ZM1157.15 39.7619C1152.99 28.9131 1146.95 20.392 1139.01 14.249L1137.78 15.831C1145.39 21.7146 1151.23 29.9135 1155.28 40.4781L1157.15 39.7619ZM1139.01 14.249C1131.05 8.09179 1121.74 5.01999 1111.12 5.01999V7.01999C1121.32 7.01999 1130.2 9.96153 1137.78 15.831L1139.01 14.249ZM1111.12 5.01999C1097.47 5.01999 1086.89 10.2144 1079.5 20.621L1081.13 21.779C1088.11 11.9456 1098.06 7.01999 1111.12 7.01999V5.01999ZM1079.5 20.6154C1072.15 30.8218 1068.54 45.0638 1068.54 63.22H1070.54C1070.54 45.2962 1074.11 31.5249 1081.13 21.7846L1079.5 20.6154ZM1068.54 63.22C1068.54 77.546 1070.68 90.4283 1074.98 101.852L1076.85 101.148C1072.65 89.9851 1070.54 77.3474 1070.54 63.22H1068.54ZM1074.99 101.867C1079.43 113.134 1085.46 122.01 1093.09 128.445L1094.38 126.915C1087.05 120.737 1081.2 112.16 1076.85 101.133L1074.99 101.867ZM1093.1 128.451C1100.9 134.899 1109.7 138.14 1119.48 138.14V136.14C1110.18 136.14 1101.83 133.074 1094.37 126.909L1093.1 128.451Z" fill="#100903" fill-opacity="0.4"/>
</svg>
