<svg width="619" height="181" viewBox="0 0 619 181" fill="none" xmlns="http://www.w3.org/2000/svg">
<path d="M166.38 175.78L166.43 174.781L166.412 174.78L166.394 174.78L166.38 175.78ZM150.1 175.56L150.114 174.56L150.1 174.56L150.087 174.56L150.1 175.56ZM133.6 175.78L133.587 174.78L133.567 174.78L133.547 174.781L133.6 175.78ZM134.7 171.16L135.255 171.992L135.255 171.992L134.7 171.16ZM138 161.92H139V161.891L138.998 161.861L138 161.92ZM137.78 158.18L136.781 158.231L136.782 158.239L137.78 158.18ZM133.16 68.2L134.159 68.1487L132.24 67.8077L133.16 68.2ZM87.84 174.46L88.7344 174.907L88.748 174.88L88.7598 174.852L87.84 174.46ZM84.32 174.46L85.2144 174.013L85.2098 174.004L85.205 173.994L84.32 174.46ZM28.66 68.64L29.545 68.1745L27.7459 64.7539L27.6602 68.6178L28.66 68.64ZM26.9 148.06L25.9002 148.038L25.9002 148.041L26.9 148.06ZM31.52 166.76L30.7045 167.339L30.7152 167.354L30.7264 167.368L31.52 166.76ZM36.36 175.78L36.4265 174.782L36.4024 174.781L36.3782 174.78L36.36 175.78ZM24.26 175.56L24.2782 174.56L24.2612 174.56L24.2441 174.56L24.26 175.56ZM10.4 175.78L10.3841 174.78L10.3609 174.78L10.3376 174.782L10.4 175.78ZM15.24 166.54L16.0307 167.152L16.0307 167.152L15.24 166.54ZM20.74 148.06L19.7402 148.038L19.7402 148.041L20.74 148.06ZM22.72 56.98L23.7198 57.0017L23.729 56.5748L23.4271 56.2729L22.72 56.98ZM22.5 56.76L21.6203 57.2355L21.6897 57.3639L21.7929 57.4671L22.5 56.76ZM13.26 44.88L12.6308 45.6572L12.6396 45.6644L12.6486 45.6713L13.26 44.88ZM2.48 38.5L2.50127 37.5002L2.49064 37.5H2.48V38.5ZM12.82 38.72L12.8912 37.7225L12.8663 37.7208L12.8413 37.7202L12.82 38.72ZM20.74 38.94V39.94H20.7494L20.7589 39.9398L20.74 38.94ZM32.4 38.72L32.4189 39.7198L32.4648 39.719L32.5104 39.7139L32.4 38.72ZM41.86 40.48L42.6494 39.866L42.6494 39.866L41.86 40.48ZM47.58 49.94L48.4625 49.4696L48.4578 49.4609L48.4529 49.4522L47.58 49.94ZM95.54 139.92L94.6575 140.39L95.6304 142.216L96.4567 140.319L95.54 139.92ZM137.34 44L138.257 44.3995L138.259 44.3939L137.34 44ZM139.98 39.82L140.62 40.5883L140.631 40.5793L139.98 39.82ZM148.34 38.72L148.249 39.7159L148.257 39.7165L148.34 38.72ZM154.28 38.94V39.94H154.288L154.297 39.9399L154.28 38.94ZM167.26 38.72L167.277 39.7199L167.304 39.7194L167.331 39.7175L167.26 38.72ZM161.1 45.32L161.771 46.0615L161.771 46.0615L161.1 45.32ZM156.92 58.3L155.921 58.3499L155.921 58.3528L156.92 58.3ZM162.2 158.18L161.201 158.233L161.202 158.244L162.2 158.18ZM163.74 168.08L162.798 168.416L162.809 168.445L162.821 168.474L163.74 168.08ZM168.14 172.26L167.804 173.202L167.814 173.205L167.824 173.209L168.14 172.26ZM178.26 174.36C178.168 174.36 178.068 174.342 177.969 174.3C177.872 174.258 177.798 174.202 177.745 174.15C177.65 174.054 177.632 173.977 177.641 174.006C177.648 174.028 177.665 174.091 177.679 174.213C177.692 174.332 177.7 174.486 177.7 174.68H179.7C179.7 174.211 179.664 173.75 179.539 173.374C179.422 173.023 179.071 172.36 178.26 172.36V174.36ZM177.7 174.68C177.7 174.874 177.692 175.028 177.679 175.147C177.665 175.269 177.648 175.332 177.641 175.354C177.632 175.383 177.65 175.306 177.745 175.21C177.798 175.158 177.872 175.102 177.969 175.06C178.068 175.018 178.168 175 178.26 175V177C179.071 177 179.422 176.337 179.539 175.986C179.664 175.61 179.7 175.149 179.7 174.68H177.7ZM178.26 175C173.28 175 169.339 174.927 166.43 174.781L166.33 176.779C169.288 176.927 173.266 177 178.26 177V175ZM166.394 174.78L150.114 174.56L150.086 176.56L166.366 176.78L166.394 174.78ZM150.087 174.56L133.587 174.78L133.613 176.78L150.113 176.56L150.087 174.56ZM133.547 174.781C130.786 174.927 126.993 175 122.16 175V177C127.007 177 130.84 176.927 133.653 176.779L133.547 174.781ZM122.16 175C122.225 175 122.326 175.019 122.426 175.085C122.519 175.148 122.555 175.214 122.559 175.223C122.562 175.228 122.544 175.193 122.528 175.093C122.512 174.996 122.5 174.861 122.5 174.68H120.5C120.5 175.171 120.556 175.688 120.771 176.117C120.885 176.346 121.058 176.577 121.317 176.75C121.581 176.926 121.875 177 122.16 177V175ZM122.5 174.68C122.5 174.499 122.512 174.364 122.528 174.267C122.544 174.167 122.562 174.132 122.559 174.137C122.555 174.146 122.519 174.212 122.426 174.275C122.326 174.341 122.225 174.36 122.16 174.36V172.36C121.875 172.36 121.581 172.434 121.317 172.61C121.058 172.783 120.885 173.014 120.771 173.243C120.556 173.672 120.5 174.189 120.5 174.68H122.5ZM122.16 174.36C125.274 174.36 127.922 174.175 130.088 173.795C132.241 173.417 133.991 172.835 135.255 171.992L134.145 170.328C133.209 170.952 131.769 171.47 129.742 171.825C127.728 172.178 125.206 172.36 122.16 172.36V174.36ZM135.255 171.992C137.893 170.233 139 166.693 139 161.92H137C137 166.534 135.907 169.154 134.145 170.328L135.255 171.992ZM138.998 161.861L138.778 158.121L136.782 158.239L137.002 161.979L138.998 161.861ZM138.779 158.129L134.159 68.1487L132.161 68.2513L136.781 158.231L138.779 158.129ZM132.24 67.8077L86.9202 174.068L88.7598 174.852L134.08 68.5923L132.24 67.8077ZM86.9456 174.013C86.88 174.144 86.7322 174.34 86.08 174.34V176.34C87.1878 176.34 88.2133 175.949 88.7344 174.907L86.9456 174.013ZM86.08 174.34C85.4278 174.34 85.28 174.144 85.2144 174.013L83.4256 174.907C83.9467 175.949 84.9722 176.34 86.08 176.34V174.34ZM85.205 173.994L29.545 68.1745L27.775 69.1055L83.435 174.926L85.205 173.994ZM27.6602 68.6178L25.9002 148.038L27.8998 148.082L29.6598 68.6621L27.6602 68.6178ZM25.9002 148.041C25.7512 156.088 27.3118 162.558 30.7045 167.339L32.3355 166.181C29.2749 161.869 27.7555 155.872 27.8998 148.079L25.9002 148.041ZM30.7264 167.368C34.3067 172.038 39.306 174.36 45.6 174.36V172.36C39.8673 172.36 35.48 170.282 32.3136 166.152L30.7264 167.368ZM45.6 174.36C45.535 174.36 45.4335 174.341 45.3341 174.275C45.2408 174.212 45.2049 174.146 45.2006 174.137C45.1982 174.132 45.2158 174.167 45.2324 174.267C45.2485 174.364 45.26 174.499 45.26 174.68H47.26C47.26 174.189 47.2039 173.672 46.9894 173.243C46.8751 173.014 46.7017 172.783 46.4435 172.61C46.179 172.434 45.885 172.36 45.6 172.36V174.36ZM45.26 174.68C45.26 174.861 45.2485 174.996 45.2324 175.093C45.2158 175.193 45.1982 175.228 45.2006 175.223C45.2049 175.214 45.2408 175.148 45.3341 175.085C45.4335 175.019 45.535 175 45.6 175V177C45.885 177 46.179 176.926 46.4435 176.75C46.7017 176.577 46.8751 176.346 46.9894 176.117C47.2039 175.688 47.26 175.171 47.26 174.68H45.26ZM45.6 175C41.6477 175 38.5936 174.927 36.4265 174.782L36.2935 176.778C38.5264 176.927 41.6323 177 45.6 177V175ZM36.3782 174.78L24.2782 174.56L24.2418 176.56L36.3418 176.78L36.3782 174.78ZM24.2441 174.56L10.3841 174.78L10.4159 176.78L24.2759 176.56L24.2441 174.56ZM10.3376 174.782C8.02097 174.927 4.89116 175 0.94 175V177C4.90884 177 8.0857 176.927 10.4624 176.778L10.3376 174.782ZM0.94 175C1.00498 175 1.10646 175.019 1.20595 175.085C1.29919 175.148 1.33511 175.214 1.33943 175.223C1.34178 175.228 1.32423 175.193 1.30764 175.093C1.29151 174.996 1.28 174.861 1.28 174.68H-0.72C-0.72 175.171 -0.663908 175.688 -0.449427 176.117C-0.335112 176.346 -0.161685 176.577 0.09655 176.75C0.361045 176.926 0.655016 177 0.94 177V175ZM1.28 174.68C1.28 174.499 1.29151 174.364 1.30764 174.267C1.32423 174.167 1.34178 174.132 1.33943 174.137C1.33511 174.146 1.29919 174.212 1.20595 174.275C1.10646 174.341 1.00498 174.36 0.94 174.36V172.36C0.655016 172.36 0.361045 172.434 0.09655 172.61C-0.161685 172.783 -0.335112 173.014 -0.449427 173.243C-0.663908 173.672 -0.72 174.189 -0.72 174.68H1.28ZM0.94 174.36C7.24622 174.36 12.3115 171.956 16.0307 167.152L14.4493 165.928C11.1285 170.217 6.66044 172.36 0.94 172.36V174.36ZM16.0307 167.152C19.7219 162.384 21.5905 155.993 21.7398 148.079L19.7402 148.041C19.5962 155.674 17.7982 161.602 14.4493 165.928L16.0307 167.152ZM21.7398 148.082L23.7198 57.0017L21.7202 56.9583L19.7402 148.038L21.7398 148.082ZM23.4271 56.2729L23.2071 56.0529L21.7929 57.4671L22.0129 57.6871L23.4271 56.2729ZM23.3797 56.2845C20.4108 50.792 17.2504 46.6997 13.8714 44.0887L12.6486 45.6713C15.7229 48.0469 18.7225 51.8746 21.6203 57.2355L23.3797 56.2845ZM13.8892 44.1028C10.6243 41.4597 6.80671 40.14 2.48 40.14V42.14C6.36662 42.14 9.73571 43.3136 12.6308 45.6572L13.8892 44.1028ZM2.48 40.14C2.54498 40.14 2.64645 40.1591 2.74595 40.2254C2.83918 40.2876 2.87511 40.3541 2.87943 40.3628C2.88178 40.3675 2.86423 40.3326 2.84764 40.2331C2.83151 40.1363 2.82 40.001 2.82 39.82H0.82C0.82 40.3111 0.876092 40.8282 1.09057 41.2572C1.20489 41.4858 1.37832 41.7174 1.63655 41.8895C1.90105 42.0659 2.19502 42.14 2.48 42.14V40.14ZM2.82 39.82C2.82 39.639 2.83151 39.5037 2.84764 39.4069C2.86423 39.3074 2.88178 39.2725 2.87943 39.2772C2.87511 39.2858 2.83918 39.3524 2.74595 39.4146C2.64645 39.4809 2.54498 39.5 2.48 39.5V37.5C2.19502 37.5 1.90105 37.5741 1.63655 37.7504C1.37832 37.9226 1.20489 38.1542 1.09057 38.3828C0.876092 38.8117 0.82 39.3289 0.82 39.82H2.82ZM2.45873 39.4998L12.7987 39.7198L12.8413 37.7202L2.50127 37.5002L2.45873 39.4998ZM12.7488 39.7175C14.8351 39.8665 17.5012 39.94 20.74 39.94V37.94C17.5254 37.94 14.9115 37.8668 12.8912 37.7225L12.7488 39.7175ZM20.7589 39.9398L32.4189 39.7198L32.3811 37.7202L20.7211 37.9402L20.7589 39.9398ZM32.5104 39.7139C33.7797 39.5729 35.426 39.5 37.46 39.5V37.5C35.3873 37.5 33.6603 37.5738 32.2896 37.7261L32.5104 39.7139ZM37.46 39.5C39.1072 39.5 40.2617 40.0538 41.0707 41.0939L42.6494 39.866C41.405 38.2662 39.6262 37.5 37.46 37.5V39.5ZM41.0707 41.0939C42.0416 42.3423 43.9106 45.4236 46.7071 50.4278L48.4529 49.4522C45.6761 44.4831 43.7318 41.2577 42.6494 39.866L41.0707 41.0939ZM46.6975 50.4104L94.6575 140.39L96.4225 139.45L48.4625 49.4696L46.6975 50.4104ZM96.4567 140.319L138.257 44.3995L136.423 43.6005L94.6233 139.521L96.4567 140.319ZM138.259 44.3939C139.125 42.3728 139.93 41.1638 140.62 40.5882L139.34 39.0518C138.27 39.9429 137.315 41.5205 136.421 43.6061L138.259 44.3939ZM140.631 40.5793C141.443 39.8834 142.517 39.5 143.94 39.5V37.5C142.136 37.5 140.571 37.9966 139.329 39.0607L140.631 40.5793ZM143.94 39.5C145.224 39.5 146.66 39.5714 148.249 39.7159L148.431 37.7241C146.794 37.5753 145.296 37.5 143.94 37.5V39.5ZM148.257 39.7165C150.05 39.866 152.059 39.94 154.28 39.94V37.94C152.101 37.94 150.15 37.8673 148.423 37.7235L148.257 39.7165ZM154.297 39.9399L167.277 39.7199L167.243 37.7201L154.263 37.9401L154.297 39.9399ZM167.331 39.7175C169.349 39.5733 172.254 39.5 176.06 39.5V37.5C172.239 37.5 169.278 37.5733 167.189 37.7225L167.331 39.7175ZM176.06 39.5C175.995 39.5 175.894 39.4809 175.794 39.4146C175.701 39.3524 175.665 39.2858 175.661 39.2772C175.658 39.2725 175.676 39.3074 175.692 39.4069C175.708 39.5037 175.72 39.639 175.72 39.82H177.72C177.72 39.3289 177.664 38.8117 177.449 38.3828C177.335 38.1542 177.162 37.9226 176.903 37.7504C176.639 37.5741 176.345 37.5 176.06 37.5V39.5ZM175.72 39.82C175.72 40.001 175.708 40.1363 175.692 40.2331C175.676 40.3326 175.658 40.3675 175.661 40.3628C175.665 40.3541 175.701 40.2876 175.794 40.2254C175.894 40.1591 175.995 40.14 176.06 40.14V42.14C176.345 42.14 176.639 42.0659 176.903 41.8895C177.162 41.7174 177.335 41.4858 177.449 41.2572C177.664 40.8282 177.72 40.3111 177.72 39.82H175.72ZM176.06 40.14C169.071 40.14 163.781 41.5455 160.429 44.5785L161.771 46.0615C164.579 43.5211 169.262 42.14 176.06 42.14V40.14ZM160.429 44.5785C157.046 47.6398 155.619 52.3133 155.921 58.3499L157.919 58.2501C157.634 52.5533 158.994 48.5735 161.771 46.0615L160.429 44.5785ZM155.921 58.3528L161.201 158.233L163.199 158.127L157.919 58.2472L155.921 58.3528ZM161.202 158.244C161.496 162.806 162.015 166.224 162.798 168.416L164.682 167.744C163.998 165.83 163.49 162.648 163.198 158.116L161.202 158.244ZM162.821 168.474C163.807 170.776 165.481 172.372 167.804 173.202L168.476 171.318C166.692 170.681 165.433 169.491 164.659 167.686L162.821 168.474ZM167.824 173.209C170.182 173.995 173.688 174.36 178.26 174.36V172.36C173.738 172.36 170.498 171.992 168.456 171.311L167.824 173.209ZM292.753 141.02L293.703 141.332L293.753 141.18V141.02H292.753ZM294.733 141.02L294.026 141.727L294.193 141.894L294.417 141.969L294.733 141.02ZM295.393 141.46L296.385 141.587L296.393 141.524V141.46H295.393ZM292.533 175.34L293.24 176.047L293.29 175.997L293.333 175.94L292.533 175.34ZM202.773 172.26L202.457 171.311L202.446 171.315L202.436 171.318L202.773 172.26ZM207.173 168.08L208.115 168.416L208.118 168.406L208.121 168.396L207.173 168.08ZM207.173 46.64L206.231 46.9763L206.231 46.9763L207.173 46.64ZM202.773 42.46L202.401 43.3885L202.429 43.3994L202.457 43.4087L202.773 42.46ZM288.133 40.48H287.133V40.4875L287.133 40.495L288.133 40.48ZM288.573 69.74H289.573V69.7325L289.573 69.725L288.573 69.74ZM287.253 70.4L287.088 69.4136L287.073 69.4163L287.057 69.4194L287.253 70.4ZM285.933 69.96L284.969 70.2259L284.976 70.2513L284.984 70.2762L285.933 69.96ZM274.053 51.04L273.46 51.8451L273.46 51.8451L274.053 51.04ZM235.773 47.74L236.453 48.4728L236.453 48.4728L235.773 47.74ZM232.693 101.42H231.693V102.42H232.693V101.42ZM270.533 97.02L269.991 96.1797L269.991 96.1797L270.533 97.02ZM279.773 84.7L280.773 84.7111V84.7H279.773ZM279.553 104.5L278.553 104.489L278.553 104.505L278.553 104.521L279.553 104.5ZM279.773 115.06L278.773 115.081L278.773 115.1L278.775 115.119L279.773 115.06ZM270.533 112.86L269.921 113.651L269.935 113.662L269.949 113.672L270.533 112.86ZM232.693 107.58V106.58H231.693V107.58H232.693ZM235.113 166.76L235.899 166.142L235.899 166.142L235.113 166.76ZM277.573 162.8L277.01 161.973L277.01 161.973L277.573 162.8ZM227.413 26.84V27.84H227.649L227.86 27.7344L227.413 26.84ZM226.313 25.96L225.332 26.1561L225.337 26.1794L225.343 26.2025L226.313 25.96ZM226.753 24.42L227.308 25.2521L227.324 25.2413L227.339 25.2299L226.753 24.42ZM244.573 9.89999L245.227 10.6562L245.228 10.6557L244.573 9.89999ZM254.473 1.53999L255.098 2.32086L255.141 2.28626L255.18 2.2471L254.473 1.53999ZM262.173 2.41999L261.885 3.37782L261.904 3.38341L261.923 3.38827L262.173 2.41999ZM274.053 6.81999L273.59 7.70657L273.613 7.7184L273.636 7.72905L274.053 6.81999ZM276.693 9.67999L276.528 8.6936L276.493 8.69954L276.458 8.70803L276.693 9.67999ZM251.613 17.16L251.946 18.103L251.956 18.0993L251.613 17.16ZM227.853 26.62L227.451 25.7042L227.428 25.7143L227.406 25.7256L227.853 26.62ZM293.753 141.02C293.753 141.122 293.725 141.255 293.64 141.382C293.559 141.503 293.465 141.562 293.42 141.584C293.379 141.605 293.368 141.601 293.412 141.594C293.454 141.587 293.525 141.58 293.633 141.58V139.58C293.288 139.58 292.881 139.618 292.526 139.796C292.334 139.892 292.13 140.042 291.976 140.273C291.818 140.51 291.753 140.772 291.753 141.02H293.753ZM293.633 141.58C293.825 141.58 293.932 141.634 294.026 141.727L295.44 140.313C294.947 139.82 294.32 139.58 293.633 139.58V141.58ZM294.417 141.969C294.504 141.998 294.569 142.023 294.615 142.044C294.664 142.065 294.679 142.076 294.673 142.072C294.672 142.071 294.615 142.035 294.552 141.95C294.482 141.857 294.393 141.689 294.393 141.46H296.393C296.393 140.856 295.953 140.522 295.783 140.408C295.563 140.262 295.3 140.155 295.049 140.071L294.417 141.969ZM294.401 141.333C292.93 152.806 292.193 163.263 292.193 172.7H294.193C294.193 163.364 294.922 152.994 296.385 141.587L294.401 141.333ZM292.193 172.7C292.193 173.777 291.986 174.403 291.733 174.74L293.333 175.94C293.96 175.104 294.193 173.969 294.193 172.7H292.193ZM291.826 174.633C291.78 174.679 291.64 174.78 291.3 174.865C290.967 174.948 290.505 175 289.893 175V177C290.601 177 291.239 176.942 291.785 176.805C292.326 176.67 292.846 176.441 293.24 176.047L291.826 174.633ZM289.893 175H192.653V177H289.893V175ZM192.653 175C192.718 175 192.819 175.019 192.919 175.085C193.012 175.148 193.048 175.214 193.052 175.223C193.055 175.228 193.037 175.193 193.02 175.093C193.004 174.996 192.993 174.861 192.993 174.68H190.993C190.993 175.171 191.049 175.688 191.263 176.117C191.378 176.346 191.551 176.577 191.809 176.75C192.074 176.926 192.368 177 192.653 177V175ZM192.993 174.68C192.993 174.499 193.004 174.364 193.02 174.267C193.037 174.167 193.055 174.132 193.052 174.137C193.048 174.146 193.012 174.212 192.919 174.275C192.819 174.341 192.718 174.36 192.653 174.36V172.36C192.368 172.36 192.074 172.434 191.809 172.61C191.551 172.783 191.378 173.014 191.263 173.243C191.049 173.672 190.993 174.189 190.993 174.68H192.993ZM192.653 174.36C197.36 174.36 200.882 173.997 203.109 173.202L202.436 171.318C200.557 171.99 197.333 172.36 192.653 172.36V174.36ZM203.089 173.209C205.559 172.385 207.271 170.78 208.115 168.416L206.231 167.744C205.608 169.487 204.386 170.668 202.457 171.311L203.089 173.209ZM208.121 168.396C208.907 166.04 209.273 162.609 209.273 158.18H207.273C207.273 162.551 206.905 165.72 206.224 167.764L208.121 168.396ZM209.273 158.18V56.32H207.273V158.18H209.273ZM209.273 56.32C209.273 51.8976 208.909 48.5267 208.115 46.3037L206.231 46.9763C206.904 48.8599 207.273 51.9424 207.273 56.32H209.273ZM208.115 46.3037C207.271 43.9403 205.559 42.3347 203.089 41.5113L202.457 43.4087C204.386 44.052 205.608 45.233 206.231 46.9763L208.115 46.3037ZM203.144 41.5315C200.762 40.5785 197.232 40.14 192.653 40.14V42.14C197.167 42.14 200.384 42.5814 202.401 43.3885L203.144 41.5315ZM192.653 40.14C192.718 40.14 192.819 40.1591 192.919 40.2254C193.012 40.2876 193.048 40.3541 193.052 40.3628C193.055 40.3675 193.037 40.3326 193.02 40.2331C193.004 40.1363 192.993 40.001 192.993 39.82H190.993C190.993 40.3111 191.049 40.8282 191.263 41.2572C191.378 41.4858 191.551 41.7174 191.809 41.8895C192.074 42.0659 192.368 42.14 192.653 42.14V40.14ZM192.993 39.82C192.993 39.639 193.004 39.5037 193.02 39.4069C193.037 39.3074 193.055 39.2725 193.052 39.2772C193.048 39.2858 193.012 39.3524 192.919 39.4146C192.819 39.4809 192.718 39.5 192.653 39.5V37.5C192.368 37.5 192.074 37.5741 191.809 37.7504C191.551 37.9226 191.378 38.1542 191.263 38.3828C191.049 38.8117 190.993 39.3289 190.993 39.82H192.993ZM192.653 39.5H285.933V37.5H192.653V39.5ZM285.933 39.5C286.536 39.5 286.803 39.6381 286.914 39.7383C287.005 39.8205 287.133 40.0029 287.133 40.48H289.133C289.133 39.637 288.894 38.8295 288.252 38.2517C287.63 37.6919 286.796 37.5 285.933 37.5V39.5ZM287.133 40.495L287.573 69.755L289.573 69.725L289.133 40.465L287.133 40.495ZM287.573 69.74C287.573 69.5387 287.656 69.3833 287.731 69.2955C287.793 69.2234 287.836 69.2103 287.796 69.2306C287.761 69.2481 287.688 69.2779 287.563 69.3127C287.44 69.3468 287.283 69.3811 287.088 69.4136L287.417 71.3864C287.889 71.3077 288.336 71.1964 288.69 71.0194C289.005 70.8619 289.573 70.4771 289.573 69.74H287.573ZM287.057 69.4194C286.921 69.4465 286.824 69.455 286.758 69.455C286.692 69.455 286.674 69.4464 286.689 69.4513C286.709 69.4579 286.756 69.4791 286.805 69.5279C286.854 69.5767 286.875 69.6241 286.882 69.6438L284.984 70.2762C285.157 70.7948 285.538 71.1758 286.057 71.3487C286.513 71.501 287.006 71.4693 287.449 71.3806L287.057 69.4194ZM286.897 69.6941C284.507 61.0314 280.444 54.5075 274.646 50.2349L273.46 51.8451C278.808 55.7858 282.665 61.8752 284.969 70.2259L286.897 69.6941ZM274.646 50.2349C268.854 45.9671 261.293 43.88 252.053 43.88V45.88C260.999 45.88 268.105 47.8995 273.46 51.8451L274.646 50.2349ZM252.053 43.88H245.453V45.88H252.053V43.88ZM245.453 43.88C240.939 43.88 237.412 44.8535 235.092 47.0072L236.453 48.4728C238.241 46.8131 241.167 45.88 245.453 45.88V43.88ZM235.092 47.0072C232.763 49.1705 231.693 52.4195 231.693 56.54H233.693C233.693 52.7405 234.676 50.1228 236.453 48.4728L235.092 47.0072ZM231.693 56.54V101.42H233.693V56.54H231.693ZM232.693 102.42H250.953V100.42H232.693V102.42ZM250.953 102.42C259.551 102.42 266.299 100.942 271.075 97.8603L269.991 96.1797C265.674 98.965 259.368 100.42 250.953 100.42V102.42ZM271.075 97.8603C275.898 94.7483 278.353 90.3297 278.353 84.7H276.353C276.353 89.6303 274.26 93.425 269.991 96.1797L271.075 97.8603ZM278.353 84.7C278.353 84.7316 278.345 84.8079 278.296 84.8969C278.246 84.9872 278.181 85.0394 278.142 85.0625C278.11 85.0816 278.11 85.0735 278.168 85.0618C278.224 85.0505 278.316 85.04 278.453 85.04V83.04C278.019 83.04 277.527 83.0993 277.113 83.3475C276.618 83.6446 276.353 84.1412 276.353 84.7H278.353ZM278.453 85.04C278.634 85.04 278.769 85.0515 278.866 85.0676C278.965 85.0842 279 85.1018 278.996 85.0994C278.987 85.0951 278.92 85.0592 278.858 84.9659C278.792 84.8665 278.773 84.765 278.773 84.7H280.773C280.773 84.415 280.699 84.121 280.522 83.8565C280.35 83.5983 280.119 83.4249 279.89 83.3106C279.461 83.0961 278.944 83.04 278.453 83.04V85.04ZM278.773 84.6889L278.553 104.489L280.553 104.511L280.773 84.7111L278.773 84.6889ZM278.553 104.521L278.773 115.081L280.773 115.039L280.553 104.479L278.553 104.521ZM278.775 115.119C279.067 120.097 279.213 124.035 279.213 126.94H281.213C281.213 123.978 281.065 119.996 280.771 115.001L278.775 115.119ZM279.213 126.94C279.213 126.848 279.231 126.748 279.273 126.649C279.315 126.552 279.371 126.478 279.423 126.425C279.519 126.33 279.596 126.312 279.567 126.321C279.545 126.328 279.482 126.345 279.36 126.359C279.241 126.372 279.087 126.38 278.893 126.38V128.38C279.362 128.38 279.823 128.344 280.199 128.219C280.55 128.102 281.213 127.751 281.213 126.94H279.213ZM278.893 126.38C278.699 126.38 278.545 126.372 278.426 126.359C278.303 126.345 278.24 126.328 278.219 126.321C278.19 126.312 278.267 126.33 278.362 126.425C278.415 126.478 278.471 126.552 278.513 126.649C278.555 126.748 278.573 126.848 278.573 126.94H276.573C276.573 127.751 277.236 128.102 277.587 128.219C277.963 128.344 278.424 128.38 278.893 128.38V126.38ZM278.573 126.94C278.573 120.62 276.083 115.618 271.116 112.048L269.949 113.672C274.369 116.849 276.573 121.233 276.573 126.94H278.573ZM271.145 112.069C266.354 108.36 259.501 106.58 250.733 106.58V108.58C259.271 108.58 265.618 110.32 269.921 113.651L271.145 112.069ZM250.733 106.58H232.693V108.58H250.733V106.58ZM231.693 107.58V157.3H233.693V107.58H231.693ZM231.693 157.3C231.693 161.647 232.511 165.068 234.326 167.378L235.899 166.142C234.488 164.346 233.693 161.459 233.693 157.3H231.693ZM234.326 167.378C236.19 169.75 239.1 170.84 242.813 170.84V168.84C239.485 168.84 237.262 167.877 235.899 166.142L234.326 167.378ZM242.813 170.84H250.073V168.84H242.813V170.84ZM250.073 170.84C261.641 170.84 271.025 168.468 278.136 163.627L277.01 161.973C270.334 166.519 261.385 168.84 250.073 168.84V170.84ZM278.136 163.627C285.251 158.782 290.424 151.317 293.703 141.332L291.803 140.708C288.628 150.377 283.681 157.432 277.01 161.973L278.136 163.627ZM227.413 25.84C227.349 25.84 227.317 25.8319 227.308 25.8292C227.302 25.8272 227.31 25.8291 227.323 25.8391C227.335 25.8489 227.335 25.8539 227.328 25.8411C227.319 25.8263 227.301 25.789 227.283 25.7175L225.343 26.2025C225.454 26.6467 225.675 27.0825 226.073 27.4009C226.474 27.7218 226.95 27.84 227.413 27.84V25.84ZM227.293 25.7639C227.24 25.4945 227.259 25.3543 227.274 25.2997C227.278 25.2871 227.281 25.2795 227.283 25.2755C227.285 25.2717 227.286 25.27 227.287 25.2694C227.287 25.2689 227.288 25.2676 227.29 25.2653C227.293 25.263 227.298 25.2584 227.308 25.2521L226.198 23.5879C225.282 24.199 225.145 25.2204 225.332 26.1561L227.293 25.7639ZM227.339 25.2299C231.628 22.124 237.595 17.2612 245.227 10.6562L243.918 9.14382C236.298 15.7387 230.384 20.556 226.166 23.6101L227.339 25.2299ZM245.228 10.6557C249.626 6.84392 252.914 4.06796 255.098 2.32086L253.848 0.759122C251.632 2.53203 248.32 5.3294 243.918 9.1443L245.228 10.6557ZM255.18 2.2471C255.139 2.288 255.182 2.21597 255.499 2.17372C255.798 2.13382 256.235 2.135 256.834 2.20352C258.03 2.3402 259.706 2.72391 261.885 3.37782L262.46 1.46217C260.24 0.796074 258.432 0.373115 257.061 0.216459C256.378 0.138315 255.76 0.121158 255.234 0.191263C254.726 0.259008 254.173 0.425314 253.766 0.832884L255.18 2.2471ZM261.923 3.38827C266.412 4.54681 270.298 5.98889 273.59 7.70657L274.515 5.9334C271.061 4.1311 267.027 2.63985 262.423 1.45172L261.923 3.38827ZM273.636 7.72905C274.5 8.12496 275.183 8.47183 275.694 8.77002C276.224 9.07922 276.503 9.29823 276.618 9.42327C276.677 9.48712 276.629 9.45834 276.596 9.34035C276.549 9.17351 276.569 8.94691 276.701 8.75956C276.799 8.6199 276.898 8.59376 276.844 8.61598C276.803 8.63312 276.706 8.66396 276.528 8.6936L276.857 10.6664C277.119 10.6227 277.38 10.5596 277.614 10.4621C277.835 10.3698 278.126 10.2084 278.335 9.91293C278.577 9.56974 278.624 9.16668 278.522 8.80276C278.434 8.48769 278.249 8.2412 278.088 8.06671C277.763 7.71508 277.272 7.37493 276.702 7.04246C276.113 6.69899 275.366 6.32168 274.469 5.91092L273.636 7.72905ZM276.458 8.70803C267.333 10.9156 258.936 13.4194 251.27 16.2207L251.956 18.0993C259.542 15.3273 267.866 12.8444 276.928 10.6519L276.458 8.70803ZM251.28 16.217C243.774 18.8663 235.83 22.0291 227.451 25.7042L228.254 27.5358C236.595 23.8776 244.492 20.7336 251.946 18.103L251.28 16.217ZM227.406 25.7256L226.966 25.9456L227.86 27.7344L228.3 27.5144L227.406 25.7256ZM464.08 38.5V37.5H464.068L464.057 37.5002L464.08 38.5ZM450.22 48.18L451.023 48.7758L451.027 48.7698L451.032 48.7636L450.22 48.18ZM444.06 180.18L443.863 179.199L443.84 179.204L443.817 179.21L444.06 180.18ZM442.74 179.96L441.988 180.62L442.01 180.644L442.032 180.667L442.74 179.96ZM339.56 62.48L340.311 61.8201L338.56 59.826V62.48H339.56ZM344.4 166.54L345.215 165.961L345.215 165.961L344.4 166.54ZM348.36 175.78L348.426 174.782L348.402 174.781L348.378 174.78L348.36 175.78ZM336.48 175.56L336.498 174.56L336.481 174.56L336.463 174.56L336.48 175.56ZM322.84 175.78L322.823 174.78L322.802 174.78L322.781 174.782L322.84 175.78ZM327.24 166.54L326.473 165.897L326.467 165.905L326.461 165.912L327.24 166.54ZM332.96 55H333.96V54.611L333.697 54.3243L332.96 55ZM320.42 44.22L319.9 45.0742L319.921 45.0873L319.943 45.0993L320.42 44.22ZM309.86 38.5L309.883 37.5003L309.871 37.5H309.86V38.5ZM319.1 38.72L319.176 37.7229L319.15 37.7209L319.123 37.7203L319.1 38.72ZM327.46 38.94V39.9401L327.473 39.9399L327.46 38.94ZM344.18 38.72L344.193 39.7199L344.222 39.7195L344.251 39.7175L344.18 38.72ZM354.3 39.38L355.007 38.6729L355.007 38.6729L354.3 39.38ZM357.38 43.12L358.184 42.5256L358.178 42.5179L358.172 42.5103L357.38 43.12ZM362.66 49.94L363.415 49.2848L363.412 49.2815L362.66 49.94ZM438.78 137.72L438.024 138.375L439.78 140.4V137.72H438.78ZM420.52 38.5L420.543 37.5003L420.531 37.5H420.52V38.5ZM429.98 38.72L430.042 37.7219L430.022 37.7207L430.003 37.7203L429.98 38.72ZM454.18 38.72L454.157 37.7202L454.141 37.7206L454.124 37.7215L454.18 38.72ZM464.08 39.5C463.988 39.5 463.887 39.482 463.789 39.4398C463.691 39.398 463.617 39.3418 463.565 39.2896C463.47 39.1943 463.451 39.1172 463.461 39.1462C463.468 39.1676 463.485 39.2306 463.498 39.3529C463.511 39.4717 463.52 39.6258 463.52 39.82H465.52C465.52 39.3508 465.484 38.8901 465.358 38.5138C465.241 38.1631 464.89 37.5 464.08 37.5V39.5ZM463.52 39.82C463.52 40.0142 463.511 40.1683 463.498 40.2871C463.485 40.4094 463.468 40.4724 463.461 40.4938C463.451 40.5228 463.47 40.4457 463.565 40.3504C463.617 40.2982 463.691 40.242 463.789 40.2002C463.887 40.158 463.988 40.14 464.08 40.14V42.14C464.89 42.14 465.241 41.4769 465.358 41.1262C465.484 40.7499 465.52 40.2892 465.52 39.82H463.52ZM464.08 40.14C457.897 40.14 452.972 42.637 449.408 47.5964L451.032 48.7636C454.214 44.3363 458.529 42.14 464.08 42.14V40.14ZM449.416 47.5841C445.875 52.3571 444.16 58.7506 444.16 66.66H446.16C446.16 59.0227 447.817 53.0963 451.023 48.7758L449.416 47.5841ZM444.16 66.66V179.3H446.16V66.66H444.16ZM444.16 179.3C444.16 179.266 444.168 179.213 444.196 179.155C444.224 179.1 444.255 179.073 444.26 179.069C444.262 179.067 444.238 179.086 444.169 179.114C444.101 179.141 444.002 179.172 443.863 179.199L444.256 181.161C444.696 181.073 445.148 180.92 445.509 180.631C445.911 180.309 446.16 179.847 446.16 179.3H444.16ZM443.817 179.21C443.612 179.261 443.5 179.256 443.454 179.249C443.423 179.243 443.435 179.241 443.447 179.253L442.032 180.667C442.677 181.312 443.545 181.339 444.302 181.15L443.817 179.21ZM443.491 179.3L340.311 61.8201L338.808 63.1399L441.988 180.62L443.491 179.3ZM338.56 62.48V148.06H340.56V62.48H338.56ZM338.56 148.06C338.56 155.961 340.198 162.348 343.584 167.119L345.215 165.961C342.147 161.639 340.56 155.705 340.56 148.06H338.56ZM343.584 167.119C347.004 171.938 351.785 174.36 357.82 174.36V172.36C352.414 172.36 348.248 170.236 345.215 165.961L343.584 167.119ZM357.82 174.36C357.728 174.36 357.627 174.342 357.529 174.3C357.431 174.258 357.357 174.202 357.305 174.15C357.21 174.054 357.191 173.977 357.201 174.006C357.208 174.028 357.225 174.091 357.238 174.213C357.251 174.332 357.26 174.486 357.26 174.68H359.26C359.26 174.211 359.224 173.75 359.098 173.374C358.981 173.023 358.63 172.36 357.82 172.36V174.36ZM357.26 174.68C357.26 174.874 357.251 175.028 357.238 175.147C357.225 175.269 357.208 175.332 357.201 175.354C357.191 175.383 357.21 175.306 357.305 175.21C357.357 175.158 357.431 175.102 357.529 175.06C357.627 175.018 357.728 175 357.82 175V177C358.63 177 358.981 176.337 359.098 175.986C359.224 175.61 359.26 175.149 359.26 174.68H357.26ZM357.82 175C353.72 175 350.593 174.927 348.426 174.782L348.293 176.778C350.526 176.927 353.706 177 357.82 177V175ZM348.378 174.78L336.498 174.56L336.461 176.56L348.341 176.78L348.378 174.78ZM336.463 174.56L322.823 174.78L322.856 176.78L336.496 176.56L336.463 174.56ZM322.781 174.782C320.317 174.927 316.747 175 312.06 175V177C316.759 177 320.375 176.927 322.898 176.778L322.781 174.782ZM312.06 175C312.125 175 312.226 175.019 312.325 175.085C312.419 175.148 312.455 175.214 312.459 175.223C312.461 175.228 312.444 175.193 312.427 175.093C312.411 174.996 312.4 174.861 312.4 174.68H310.4C310.4 175.171 310.456 175.688 310.67 176.117C310.784 176.346 310.958 176.577 311.216 176.75C311.481 176.926 311.775 177 312.06 177V175ZM312.4 174.68C312.4 174.499 312.411 174.364 312.427 174.267C312.444 174.167 312.461 174.132 312.459 174.137C312.455 174.146 312.419 174.212 312.325 174.275C312.226 174.341 312.125 174.36 312.06 174.36V172.36C311.775 172.36 311.481 172.434 311.216 172.61C310.958 172.783 310.784 173.014 310.67 173.243C310.456 173.672 310.4 174.189 310.4 174.68H312.4ZM312.06 174.36C318.779 174.36 324.14 171.977 328.018 167.168L326.461 165.912C323.006 170.197 318.247 172.36 312.06 172.36V174.36ZM328.006 167.183C332.012 162.406 333.96 155.995 333.96 148.06H331.96C331.96 155.672 330.094 161.58 326.473 165.897L328.006 167.183ZM333.96 148.06V55H331.96V148.06H333.96ZM333.697 54.3243C328.831 49.0163 324.562 45.3265 320.896 43.3407L319.943 45.0993C323.317 46.9268 327.408 50.4237 332.222 55.6757L333.697 54.3243ZM320.939 43.3658C317.422 41.2247 313.724 40.14 309.86 40.14V42.14C313.329 42.14 316.67 43.1086 319.9 45.0742L320.939 43.3658ZM309.86 40.14C309.951 40.14 310.052 40.158 310.15 40.2002C310.248 40.242 310.322 40.2982 310.374 40.3504C310.469 40.4457 310.488 40.5228 310.478 40.4938C310.471 40.4724 310.455 40.4094 310.441 40.2871C310.428 40.1683 310.42 40.0142 310.42 39.82H308.42C308.42 40.2892 308.455 40.7499 308.581 41.1262C308.698 41.4769 309.049 42.14 309.86 42.14V40.14ZM310.42 39.82C310.42 39.6258 310.428 39.4717 310.441 39.3529C310.455 39.2306 310.471 39.1676 310.478 39.1462C310.488 39.1172 310.469 39.1943 310.374 39.2896C310.322 39.3418 310.248 39.398 310.15 39.4398C310.052 39.482 309.951 39.5 309.86 39.5V37.5C309.049 37.5 308.698 38.1631 308.581 38.5138C308.455 38.8901 308.42 39.3508 308.42 39.82H310.42ZM309.836 39.4997L319.076 39.7197L319.123 37.7203L309.883 37.5003L309.836 39.4997ZM319.023 39.7171C320.969 39.8667 323.786 39.94 327.46 39.94V37.94C323.8 37.94 321.044 37.8666 319.176 37.7229L319.023 39.7171ZM327.473 39.9399L344.193 39.7199L344.166 37.7201L327.446 37.9401L327.473 39.9399ZM344.251 39.7175C346.273 39.573 348.741 39.5 351.66 39.5V37.5C348.711 37.5 346.193 37.5736 344.108 37.7225L344.251 39.7175ZM351.66 39.5C352.679 39.5 353.259 39.7541 353.592 40.0871L355.007 38.6729C354.166 37.8325 352.987 37.5 351.66 37.5V39.5ZM353.592 40.0871C354.126 40.6206 355.115 41.8157 356.587 43.7297L358.172 42.5103C356.711 40.611 355.646 39.3127 355.007 38.6729L353.592 40.0871ZM356.575 43.7144C359.067 47.0849 360.849 49.3899 361.907 50.5985L363.412 49.2815C362.416 48.1434 360.679 45.9017 358.184 42.5256L356.575 43.7144ZM361.904 50.5951L438.024 138.375L439.535 137.065L363.415 49.2849L361.904 50.5951ZM439.78 137.72V66.66H437.78V137.72H439.78ZM439.78 66.66C439.78 58.6167 438.143 52.1547 434.755 47.3812L433.124 48.5387C436.19 52.8587 437.78 58.8633 437.78 66.66H439.78ZM434.755 47.3812C431.335 42.5623 426.554 40.14 420.52 40.14V42.14C425.926 42.14 430.091 44.2644 433.124 48.5387L434.755 47.3812ZM420.52 40.14C420.611 40.14 420.712 40.1579 420.81 40.2002C420.908 40.242 420.982 40.2982 421.034 40.3504C421.129 40.4457 421.148 40.5228 421.138 40.4938C421.131 40.4724 421.115 40.4093 421.101 40.2871C421.088 40.1683 421.08 40.0142 421.08 39.82H419.08C419.08 40.2892 419.115 40.7499 419.241 41.1262C419.358 41.4769 419.709 42.14 420.52 42.14V40.14ZM421.08 39.82C421.08 39.6258 421.088 39.4717 421.101 39.3529C421.115 39.2306 421.131 39.1676 421.138 39.1462C421.148 39.1172 421.129 39.1943 421.034 39.2896C420.982 39.3418 420.908 39.398 420.81 39.4398C420.712 39.482 420.611 39.5 420.52 39.5V37.5C419.709 37.5 419.358 38.1631 419.241 38.5138C419.115 38.8901 419.08 39.3508 419.08 39.82H421.08ZM420.496 39.4997L429.956 39.7197L430.003 37.7203L420.543 37.5003L420.496 39.4997ZM429.917 39.718C434.623 40.0121 438.605 40.16 441.86 40.16V38.16C438.661 38.16 434.723 38.0145 430.042 37.7219L429.917 39.718ZM441.86 40.16C444.82 40.16 448.949 40.0121 454.235 39.7185L454.124 37.7215C448.85 38.0145 444.765 38.16 441.86 38.16V40.16ZM454.202 39.7198L464.102 39.4998L464.057 37.5002L454.157 37.7202L454.202 39.7198ZM586.917 47.96L586.126 48.5722L586.132 48.58L586.138 48.5877L586.917 47.96ZM571.957 38.5L571.978 37.5002L571.967 37.5H571.957V38.5ZM582.517 38.72L582.569 37.7214L582.554 37.7205L582.538 37.7202L582.517 38.72ZM608.037 38.72L608.015 37.7202L607.998 37.7206L607.981 37.7215L608.037 38.72ZM618.157 38.5V37.5H618.146L618.135 37.5002L618.157 38.5ZM593.077 154.88L592.214 154.375L592.214 154.375L593.077 154.88ZM573.717 172.92L574.164 173.814L574.17 173.811L573.717 172.92ZM516.297 172.92L515.856 173.818L515.856 173.818L516.297 172.92ZM496.497 155.1L495.637 155.61L495.642 155.619L495.648 155.629L496.497 155.1ZM488.137 46.64L487.195 46.9763L487.206 47.0055L487.218 47.0339L488.137 46.64ZM483.737 42.46L483.343 43.3791L483.381 43.3955L483.421 43.4087L483.737 42.46ZM473.837 38.5L473.856 37.5002L473.846 37.5H473.837V38.5ZM485.497 38.72L485.54 37.7209L485.528 37.7204L485.516 37.7202L485.497 38.72ZM518.277 38.72L518.257 37.7202L518.245 37.7204L518.233 37.7209L518.277 38.72ZM529.497 38.5V37.5H529.487L529.477 37.5002L529.497 38.5ZM519.377 42.46L519.005 41.5315L518.994 41.536L518.983 41.5408L519.377 42.46ZM514.977 47.08L514.048 46.7086L514.041 46.726L514.035 46.7437L514.977 47.08ZM524.217 158.4L523.445 159.036L523.445 159.036L524.217 158.4ZM582.077 159.94L582.806 160.625L582.812 160.618L582.077 159.94ZM593.417 66.66C593.417 58.5926 591.549 52.1109 587.695 47.3322L586.138 48.5877C589.618 52.9024 591.417 58.8874 591.417 66.66H593.417ZM587.708 47.3478C583.973 42.5243 578.676 40.14 571.957 40.14V42.14C578.144 42.14 582.82 44.3024 586.126 48.5722L587.708 47.3478ZM571.957 40.14C572.049 40.14 572.149 40.158 572.248 40.2002C572.345 40.242 572.419 40.2982 572.471 40.3504C572.567 40.4457 572.585 40.5228 572.576 40.4938C572.568 40.4724 572.552 40.4093 572.538 40.2871C572.525 40.1683 572.517 40.0142 572.517 39.82H570.517C570.517 40.2892 570.553 40.7499 570.678 41.1262C570.795 41.4769 571.146 42.14 571.957 42.14V40.14ZM572.517 39.82C572.517 39.6258 572.525 39.4717 572.538 39.3529C572.552 39.2306 572.568 39.1676 572.576 39.1462C572.585 39.1172 572.567 39.1943 572.471 39.2896C572.419 39.3418 572.345 39.398 572.248 39.4398C572.149 39.482 572.049 39.5 571.957 39.5V37.5C571.146 37.5 570.795 38.1631 570.678 38.5138C570.553 38.8901 570.517 39.3508 570.517 39.82H572.517ZM571.936 39.4998L582.496 39.7198L582.538 37.7202L571.978 37.5002L571.936 39.4998ZM582.464 39.7186C588.045 40.0124 592.538 40.16 595.937 40.16V38.16C592.589 38.16 588.135 38.0143 582.569 37.7214L582.464 39.7186ZM595.937 40.16C598.752 40.16 602.807 40.0121 608.092 39.7185L607.981 37.7215C602.707 38.0146 598.695 38.16 595.937 38.16V40.16ZM608.059 39.7198L618.179 39.4998L618.135 37.5002L608.015 37.7202L608.059 39.7198ZM618.157 39.5C618.065 39.5 617.965 39.482 617.866 39.4398C617.769 39.398 617.694 39.3418 617.642 39.2896C617.547 39.1943 617.529 39.1172 617.538 39.1462C617.545 39.1676 617.562 39.2306 617.576 39.3529C617.589 39.4717 617.597 39.6258 617.597 39.82H619.597C619.597 39.3508 619.561 38.8901 619.436 38.5138C619.319 38.1631 618.968 37.5 618.157 37.5V39.5ZM617.597 39.82C617.597 40.0142 617.589 40.1683 617.576 40.2871C617.562 40.4093 617.545 40.4724 617.538 40.4938C617.529 40.5228 617.547 40.4457 617.642 40.3504C617.694 40.2982 617.769 40.242 617.866 40.2002C617.965 40.1579 618.065 40.14 618.157 40.14V42.14C618.968 42.14 619.319 41.4769 619.436 41.1262C619.561 40.7499 619.597 40.2892 619.597 39.82H617.597ZM618.157 40.14C612.123 40.14 607.341 42.5623 603.921 47.3812L605.552 48.5387C608.586 44.2644 612.751 42.14 618.157 42.14V40.14ZM603.921 47.3812C600.534 52.1547 598.897 58.6167 598.897 66.66H600.897C600.897 58.8633 602.487 52.8587 605.552 48.5387L603.921 47.3812ZM598.897 66.66V127.82H600.897V66.66H598.897ZM598.897 127.82C598.897 137.935 596.659 146.775 592.214 154.375L593.94 155.385C598.588 147.438 600.897 138.239 600.897 127.82H598.897ZM592.214 154.375C587.768 161.976 581.46 167.858 573.263 172.029L574.17 173.811C582.694 169.475 589.293 163.331 593.94 155.385L592.214 154.375ZM573.27 172.026C565.218 176.051 555.843 178.08 545.117 178.08V180.08C556.097 180.08 565.789 178.002 574.164 173.814L573.27 172.026ZM545.117 178.08C534.391 178.08 524.94 176.051 516.738 172.022L515.856 173.818C524.374 178.002 534.136 180.08 545.117 180.08V178.08ZM516.738 172.022C508.543 167.997 502.085 162.183 497.346 154.571L495.648 155.629C500.589 163.563 507.331 169.63 515.856 173.818L516.738 172.022ZM497.357 154.59C492.768 146.846 490.457 137.787 490.457 127.38H488.457C488.457 138.093 490.839 147.514 495.637 155.61L497.357 154.59ZM490.457 127.38V56.32H488.457V127.38H490.457ZM490.457 56.32C490.457 51.8904 490.019 48.4939 489.056 46.2461L487.218 47.0339C488.014 48.8928 488.457 51.9496 488.457 56.32H490.457ZM489.079 46.3037C488.235 43.9403 486.523 42.3347 484.053 41.5113L483.421 43.4087C485.351 44.052 486.573 45.233 487.195 46.9763L489.079 46.3037ZM484.131 41.5408C481.88 40.5764 478.408 40.14 473.837 40.14V42.14C478.359 42.14 481.487 42.5836 483.343 43.3791L484.131 41.5408ZM473.837 40.14C473.902 40.14 474.003 40.1591 474.103 40.2254C474.196 40.2876 474.232 40.3541 474.236 40.3628C474.239 40.3675 474.221 40.3326 474.205 40.2331C474.188 40.1363 474.177 40.001 474.177 39.82H472.177C472.177 40.3111 472.233 40.8282 472.447 41.2572C472.562 41.4858 472.735 41.7174 472.993 41.8895C473.258 42.0659 473.552 42.14 473.837 42.14V40.14ZM474.177 39.82C474.177 39.639 474.188 39.5037 474.205 39.4069C474.221 39.3074 474.239 39.2725 474.236 39.2772C474.232 39.2858 474.196 39.3524 474.103 39.4146C474.003 39.4809 473.902 39.5 473.837 39.5V37.5C473.552 37.5 473.258 37.5741 472.993 37.7504C472.735 37.9226 472.562 38.1542 472.447 38.3828C472.233 38.8117 472.177 39.3289 472.177 39.82H474.177ZM473.818 39.4998L485.478 39.7198L485.516 37.7202L473.856 37.5002L473.818 39.4998ZM485.453 39.7191C492.206 40.0126 497.576 40.16 501.557 40.16V38.16C497.618 38.16 492.281 38.014 485.54 37.7209L485.453 39.7191ZM501.557 40.16C505.977 40.16 511.566 40.0127 518.32 39.7191L518.233 37.7209C511.494 38.0139 505.937 38.16 501.557 38.16V40.16ZM518.296 39.7198L529.516 39.4998L529.477 37.5002L518.257 37.7202L518.296 39.7198ZM529.497 39.5C529.432 39.5 529.33 39.4809 529.231 39.4146C529.138 39.3524 529.102 39.2858 529.097 39.2772C529.095 39.2725 529.113 39.3074 529.129 39.4069C529.145 39.5037 529.157 39.639 529.157 39.82H531.157C531.157 39.3289 531.101 38.8117 530.886 38.3828C530.772 38.1542 530.599 37.9226 530.34 37.7504C530.076 37.5741 529.782 37.5 529.497 37.5V39.5ZM529.157 39.82C529.157 40.001 529.145 40.1363 529.129 40.2331C529.113 40.3326 529.095 40.3675 529.097 40.3628C529.102 40.3541 529.138 40.2876 529.231 40.2254C529.33 40.1591 529.432 40.14 529.497 40.14V42.14C529.782 42.14 530.076 42.0659 530.34 41.8895C530.599 41.7174 530.772 41.4858 530.886 41.2572C531.101 40.8282 531.157 40.3111 531.157 39.82H529.157ZM529.497 40.14C524.918 40.14 521.388 40.5785 519.005 41.5315L519.748 43.3885C521.766 42.5814 524.982 42.14 529.497 42.14V40.14ZM518.983 41.5408C516.67 42.5322 515.02 44.2789 514.048 46.7086L515.905 47.4514C516.693 45.4811 517.977 44.1478 519.771 43.3791L518.983 41.5408ZM514.035 46.7437C513.241 48.9667 512.877 52.3376 512.877 56.76H514.877C514.877 52.3824 515.246 49.2999 515.919 47.4163L514.035 46.7437ZM512.877 56.76V119.68H514.877V56.76H512.877ZM512.877 119.68C512.877 137.233 516.338 150.416 523.445 159.036L524.988 157.764C518.309 149.664 514.877 137.034 514.877 119.68H512.877ZM523.445 159.036C530.561 167.666 540.62 171.94 553.477 171.94V169.94C541.107 169.94 531.66 165.854 524.988 157.764L523.445 159.036ZM553.477 171.94C565.864 171.94 575.684 168.201 582.806 160.625L581.348 159.255C574.683 166.346 565.437 169.94 553.477 169.94V171.94ZM582.812 160.618C589.928 152.896 593.417 141.987 593.417 128.04H591.417C591.417 141.666 588.012 152.024 581.342 159.262L582.812 160.618ZM593.417 128.04V66.66H591.417V128.04H593.417Z" fill="#D1B05E" fill-opacity="0.3"/>
</svg>
