<svg width="353" height="458" viewBox="0 0 353 458" fill="none" xmlns="http://www.w3.org/2000/svg">
<g clip-path="url(#clip0_2330_21)">
<path d="M105.605 237.4C105.139 237.947 104.592 238.36 103.965 238.64C103.352 238.92 102.679 239.06 101.945 239.06C100.985 239.06 100.105 238.84 99.3053 238.4C98.5053 237.973 97.592 237.227 96.5653 236.16C95.272 236.053 94.112 235.68 93.0853 235.04C92.0586 234.387 91.2586 233.54 90.6853 232.5C90.112 231.447 89.8253 230.28 89.8253 229C89.8253 227.64 90.152 226.413 90.8053 225.32C91.4586 224.213 92.3586 223.353 93.5053 222.74C94.652 222.113 95.9386 221.8 97.3653 221.8C98.792 221.8 100.079 222.113 101.225 222.74C102.372 223.353 103.272 224.207 103.925 225.3C104.579 226.393 104.905 227.627 104.905 229C104.905 230.107 104.685 231.133 104.245 232.08C103.805 233.013 103.192 233.813 102.405 234.48C101.619 235.133 100.705 235.607 99.6653 235.9C100.052 236.313 100.432 236.613 100.805 236.8C101.179 236.987 101.579 237.08 102.005 237.08C102.925 237.08 103.725 236.707 104.405 235.96L105.605 237.4ZM92.4453 229C92.4453 229.933 92.6586 230.78 93.0853 231.54C93.512 232.287 94.0986 232.873 94.8453 233.3C95.592 233.713 96.432 233.92 97.3653 233.92C98.2986 233.92 99.1386 233.713 99.8853 233.3C100.632 232.873 101.219 232.287 101.645 231.54C102.072 230.78 102.285 229.933 102.285 229C102.285 228.067 102.072 227.227 101.645 226.48C101.219 225.72 100.632 225.133 99.8853 224.72C99.1386 224.293 98.2986 224.08 97.3653 224.08C96.432 224.08 95.592 224.293 94.8453 224.72C94.0986 225.133 93.512 225.72 93.0853 226.48C92.6586 227.227 92.4453 228.067 92.4453 229ZM113.681 236.2C111.748 236.2 110.241 235.66 109.161 234.58C108.081 233.487 107.541 231.927 107.541 229.9V222H110.141V229.8C110.141 232.547 111.328 233.92 113.701 233.92C116.061 233.92 117.241 232.547 117.241 229.8V222H119.801V229.9C119.801 231.927 119.261 233.487 118.181 234.58C117.115 235.66 115.615 236.2 113.681 236.2ZM123.443 222H126.043V236H123.443V222ZM136.309 236.2C134.896 236.2 133.616 235.893 132.469 235.28C131.336 234.653 130.443 233.793 129.789 232.7C129.149 231.607 128.829 230.373 128.829 229C128.829 227.627 129.156 226.393 129.809 225.3C130.463 224.207 131.356 223.353 132.489 222.74C133.636 222.113 134.916 221.8 136.329 221.8C137.476 221.8 138.523 222 139.469 222.4C140.416 222.8 141.216 223.38 141.869 224.14L140.189 225.72C139.176 224.627 137.929 224.08 136.449 224.08C135.489 224.08 134.629 224.293 133.869 224.72C133.109 225.133 132.516 225.713 132.089 226.46C131.663 227.207 131.449 228.053 131.449 229C131.449 229.947 131.663 230.793 132.089 231.54C132.516 232.287 133.109 232.873 133.869 233.3C134.629 233.713 135.489 233.92 136.449 233.92C137.929 233.92 139.176 233.367 140.189 232.26L141.869 233.86C141.216 234.62 140.409 235.2 139.449 235.6C138.503 236 137.456 236.2 136.309 236.2ZM149.18 230.14L146.96 232.42V236H144.36V222H146.96V229.18L153.88 222H156.8L150.92 228.26L157.16 236H154.12L149.18 230.14ZM174.958 233.82V236H164.458V222H174.678V224.18H167.058V227.82H173.818V229.96H167.058V233.82H174.958ZM190.297 222V236H188.157L180.437 226.52V236H177.857V222H179.997L187.717 231.48V222H190.297ZM196.888 224.2H192.248V222H204.128V224.2H199.488V236H196.888V224.2ZM215.239 236L212.379 231.9C212.259 231.913 212.079 231.92 211.839 231.92H208.679V236H206.079V222H211.839C213.053 222 214.106 222.2 214.999 222.6C215.906 223 216.599 223.573 217.079 224.32C217.559 225.067 217.799 225.953 217.799 226.98C217.799 228.033 217.539 228.94 217.019 229.7C216.513 230.46 215.779 231.027 214.819 231.4L218.039 236H215.239ZM215.179 226.98C215.179 226.087 214.886 225.4 214.299 224.92C213.713 224.44 212.853 224.2 211.719 224.2H208.679V229.78H211.719C212.853 229.78 213.713 229.54 214.299 229.06C214.886 228.567 215.179 227.873 215.179 226.98ZM226.553 231.06V236H223.953V231.1L218.453 222H221.233L225.333 228.82L229.473 222H232.033L226.553 231.06ZM242.103 224.2H237.463V222H249.343V224.2H244.703V236H242.103V224.2ZM257.639 236.2C256.212 236.2 254.925 235.893 253.779 235.28C252.632 234.653 251.732 233.793 251.079 232.7C250.425 231.593 250.099 230.36 250.099 229C250.099 227.64 250.425 226.413 251.079 225.32C251.732 224.213 252.632 223.353 253.779 222.74C254.925 222.113 256.212 221.8 257.639 221.8C259.065 221.8 260.352 222.113 261.499 222.74C262.645 223.353 263.545 224.207 264.199 225.3C264.852 226.393 265.179 227.627 265.179 229C265.179 230.373 264.852 231.607 264.199 232.7C263.545 233.793 262.645 234.653 261.499 235.28C260.352 235.893 259.065 236.2 257.639 236.2ZM257.639 233.92C258.572 233.92 259.412 233.713 260.159 233.3C260.905 232.873 261.492 232.287 261.919 231.54C262.345 230.78 262.559 229.933 262.559 229C262.559 228.067 262.345 227.227 261.919 226.48C261.492 225.72 260.905 225.133 260.159 224.72C259.412 224.293 258.572 224.08 257.639 224.08C256.705 224.08 255.865 224.293 255.119 224.72C254.372 225.133 253.785 225.72 253.359 226.48C252.932 227.227 252.719 228.067 252.719 229C252.719 229.933 252.932 230.78 253.359 231.54C253.785 232.287 254.372 232.873 255.119 233.3C255.865 233.713 256.705 233.92 257.639 233.92ZM96.722 248.2H92.082V246H103.962V248.2H99.322V260H96.722V248.2ZM118.353 246V260H115.753V254H108.513V260H105.913V246H108.513V251.78H115.753V246H118.353ZM132.605 257.82V260H122.105V246H132.325V248.18H124.705V251.82H131.465V253.96H124.705V257.82H132.605ZM153.89 260L153.87 250.72L149.27 258.4H148.11L143.51 250.84V260H141.03V246H143.17L148.73 255.28L154.19 246H156.33L156.35 260H153.89ZM166.152 260.2C164.219 260.2 162.712 259.66 161.632 258.58C160.552 257.487 160.012 255.927 160.012 253.9V246H162.612V253.8C162.612 256.547 163.799 257.92 166.172 257.92C168.532 257.92 169.712 256.547 169.712 253.8V246H172.272V253.9C172.272 255.927 171.732 257.487 170.652 258.58C169.585 259.66 168.085 260.2 166.152 260.2ZM180.253 260.2C179.173 260.2 178.127 260.047 177.113 259.74C176.113 259.433 175.32 259.027 174.733 258.52L175.633 256.5C176.207 256.953 176.907 257.327 177.733 257.62C178.573 257.9 179.413 258.04 180.253 258.04C181.293 258.04 182.067 257.873 182.573 257.54C183.093 257.207 183.353 256.767 183.353 256.22C183.353 255.82 183.207 255.493 182.913 255.24C182.633 254.973 182.273 254.767 181.833 254.62C181.393 254.473 180.793 254.307 180.033 254.12C178.967 253.867 178.1 253.613 177.433 253.36C176.78 253.107 176.213 252.713 175.733 252.18C175.267 251.633 175.033 250.9 175.033 249.98C175.033 249.207 175.24 248.507 175.653 247.88C176.08 247.24 176.713 246.733 177.553 246.36C178.407 245.987 179.447 245.8 180.673 245.8C181.527 245.8 182.367 245.907 183.193 246.12C184.02 246.333 184.733 246.64 185.333 247.04L184.513 249.06C183.9 248.7 183.26 248.427 182.593 248.24C181.927 248.053 181.28 247.96 180.653 247.96C179.627 247.96 178.86 248.133 178.353 248.48C177.86 248.827 177.613 249.287 177.613 249.86C177.613 250.26 177.753 250.587 178.033 250.84C178.327 251.093 178.693 251.293 179.133 251.44C179.573 251.587 180.173 251.753 180.933 251.94C181.973 252.18 182.827 252.433 183.493 252.7C184.16 252.953 184.727 253.347 185.193 253.88C185.673 254.413 185.913 255.133 185.913 256.04C185.913 256.813 185.7 257.513 185.273 258.14C184.86 258.767 184.227 259.267 183.373 259.64C182.52 260.013 181.48 260.2 180.253 260.2ZM198.991 257.82V260H188.491V246H198.711V248.18H191.091V251.82H197.851V253.96H191.091V257.82H198.991ZM207.91 260.2C205.976 260.2 204.47 259.66 203.39 258.58C202.31 257.487 201.77 255.927 201.77 253.9V246H204.37V253.8C204.37 256.547 205.556 257.92 207.93 257.92C210.29 257.92 211.47 256.547 211.47 253.8V246H214.03V253.9C214.03 255.927 213.49 257.487 212.41 258.58C211.343 259.66 209.843 260.2 207.91 260.2ZM230.531 260L230.511 250.72L225.911 258.4H224.751L220.151 250.84V260H217.671V246H219.811L225.371 255.28L230.831 246H232.971L232.991 260H230.531ZM242.3 246H244.9V260H242.3V246ZM261.127 246V260H258.987L251.267 250.52V260H248.687V246H250.827L258.547 255.48V246H261.127ZM106.343 270H108.943V281.8H116.263V284H106.343V270ZM128.816 281.82V284H118.316V270H128.536V272.18H120.916V275.82H127.676V277.96H120.916V281.82H128.816ZM136.054 284.2C134.974 284.2 133.927 284.047 132.914 283.74C131.914 283.433 131.121 283.027 130.534 282.52L131.434 280.5C132.007 280.953 132.707 281.327 133.534 281.62C134.374 281.9 135.214 282.04 136.054 282.04C137.094 282.04 137.867 281.873 138.374 281.54C138.894 281.207 139.154 280.767 139.154 280.22C139.154 279.82 139.007 279.493 138.714 279.24C138.434 278.973 138.074 278.767 137.634 278.62C137.194 278.473 136.594 278.307 135.834 278.12C134.767 277.867 133.901 277.613 133.234 277.36C132.581 277.107 132.014 276.713 131.534 276.18C131.067 275.633 130.834 274.9 130.834 273.98C130.834 273.207 131.041 272.507 131.454 271.88C131.881 271.24 132.514 270.733 133.354 270.36C134.207 269.987 135.247 269.8 136.474 269.8C137.327 269.8 138.167 269.907 138.994 270.12C139.821 270.333 140.534 270.64 141.134 271.04L140.314 273.06C139.701 272.7 139.061 272.427 138.394 272.24C137.727 272.053 137.081 271.96 136.454 271.96C135.427 271.96 134.661 272.133 134.154 272.48C133.661 272.827 133.414 273.287 133.414 273.86C133.414 274.26 133.554 274.587 133.834 274.84C134.127 275.093 134.494 275.293 134.934 275.44C135.374 275.587 135.974 275.753 136.734 275.94C137.774 276.18 138.627 276.433 139.294 276.7C139.961 276.953 140.527 277.347 140.994 277.88C141.474 278.413 141.714 279.133 141.714 280.04C141.714 280.813 141.501 281.513 141.074 282.14C140.661 282.767 140.027 283.267 139.174 283.64C138.321 284.013 137.281 284.2 136.054 284.2ZM148.632 284.2C147.552 284.2 146.505 284.047 145.492 283.74C144.492 283.433 143.699 283.027 143.112 282.52L144.012 280.5C144.585 280.953 145.285 281.327 146.112 281.62C146.952 281.9 147.792 282.04 148.632 282.04C149.672 282.04 150.445 281.873 150.952 281.54C151.472 281.207 151.732 280.767 151.732 280.22C151.732 279.82 151.585 279.493 151.292 279.24C151.012 278.973 150.652 278.767 150.212 278.62C149.772 278.473 149.172 278.307 148.412 278.12C147.345 277.867 146.479 277.613 145.812 277.36C145.159 277.107 144.592 276.713 144.112 276.18C143.645 275.633 143.412 274.9 143.412 273.98C143.412 273.207 143.619 272.507 144.032 271.88C144.459 271.24 145.092 270.733 145.932 270.36C146.785 269.987 147.825 269.8 149.052 269.8C149.905 269.8 150.745 269.907 151.572 270.12C152.399 270.333 153.112 270.64 153.712 271.04L152.892 273.06C152.279 272.7 151.639 272.427 150.972 272.24C150.305 272.053 149.659 271.96 149.032 271.96C148.005 271.96 147.239 272.133 146.732 272.48C146.239 272.827 145.992 273.287 145.992 273.86C145.992 274.26 146.132 274.587 146.412 274.84C146.705 275.093 147.072 275.293 147.512 275.44C147.952 275.587 148.552 275.753 149.312 275.94C150.352 276.18 151.205 276.433 151.872 276.7C152.539 276.953 153.105 277.347 153.572 277.88C154.052 278.413 154.292 279.133 154.292 280.04C154.292 280.813 154.079 281.513 153.652 282.14C153.239 282.767 152.605 283.267 151.752 283.64C150.899 284.013 149.859 284.2 148.632 284.2ZM165.238 272.2H160.598V270H172.478V272.2H167.838V284H165.238V272.2ZM186.869 270V284H184.269V278H177.029V284H174.429V270H177.029V275.78H184.269V270H186.869ZM199.7 280.76H192.7L191.32 284H188.64L194.94 270H197.5L203.82 284H201.1L199.7 280.76ZM198.84 278.72L196.2 272.6L193.58 278.72H198.84ZM218.041 270V284H215.901L208.181 274.52V284H205.601V270H207.741L215.461 279.48V270H218.041ZM232.279 275.78C233.573 275.94 234.559 276.38 235.239 277.1C235.919 277.82 236.259 278.72 236.259 279.8C236.259 280.613 236.053 281.353 235.639 282.02C235.226 282.687 234.599 283.22 233.759 283.62C232.933 284.007 231.919 284.2 230.719 284.2C229.719 284.2 228.753 284.06 227.819 283.78C226.899 283.487 226.113 283.087 225.459 282.58L226.579 280.56C227.086 280.987 227.699 281.327 228.419 281.58C229.153 281.82 229.906 281.94 230.679 281.94C231.599 281.94 232.319 281.753 232.839 281.38C233.373 280.993 233.639 280.473 233.639 279.82C233.639 279.167 233.386 278.66 232.879 278.3C232.386 277.927 231.626 277.74 230.599 277.74H229.319V275.96L232.499 272.18H226.139V270H235.679V271.74L232.279 275.78ZM243.8 284.2C242.68 284.2 241.68 283.92 240.8 283.36C239.92 282.787 239.227 281.96 238.72 280.88C238.213 279.787 237.96 278.493 237.96 277C237.96 275.507 238.213 274.22 238.72 273.14C239.227 272.047 239.92 271.22 240.8 270.66C241.68 270.087 242.68 269.8 243.8 269.8C244.92 269.8 245.92 270.087 246.8 270.66C247.693 271.22 248.393 272.047 248.9 273.14C249.407 274.22 249.66 275.507 249.66 277C249.66 278.493 249.407 279.787 248.9 280.88C248.393 281.96 247.693 282.787 246.8 283.36C245.92 283.92 244.92 284.2 243.8 284.2ZM243.8 281.94C244.8 281.94 245.587 281.527 246.16 280.7C246.747 279.873 247.04 278.64 247.04 277C247.04 275.36 246.747 274.127 246.16 273.3C245.587 272.473 244.8 272.06 243.8 272.06C242.813 272.06 242.027 272.473 241.44 273.3C240.867 274.127 240.58 275.36 240.58 277C240.58 278.64 240.867 279.873 241.44 280.7C242.027 281.527 242.813 281.94 243.8 281.94ZM141.849 308L141.829 298.72L137.229 306.4H136.069L131.469 298.84V308H128.989V294H131.129L136.689 303.28L142.149 294H144.289L144.309 308H141.849ZM148.091 294H150.691V308H148.091V294ZM166.918 294V308H164.778L157.058 298.52V308H154.478V294H156.618L164.338 303.48V294H166.918ZM176.689 308.2C174.756 308.2 173.249 307.66 172.169 306.58C171.089 305.487 170.549 303.927 170.549 301.9V294H173.149V301.8C173.149 304.547 174.336 305.92 176.709 305.92C179.069 305.92 180.249 304.547 180.249 301.8V294H182.809V301.9C182.809 303.927 182.269 305.487 181.189 306.58C180.122 307.66 178.622 308.2 176.689 308.2ZM189.036 296.2H184.396V294H196.276V296.2H191.636V308H189.036V296.2ZM208.728 305.82V308H198.228V294H208.448V296.18H200.828V299.82H207.588V301.96H200.828V305.82H208.728ZM215.966 308.2C214.886 308.2 213.839 308.047 212.826 307.74C211.826 307.433 211.033 307.027 210.446 306.52L211.346 304.5C211.919 304.953 212.619 305.327 213.446 305.62C214.286 305.9 215.126 306.04 215.966 306.04C217.006 306.04 217.779 305.873 218.286 305.54C218.806 305.207 219.066 304.767 219.066 304.22C219.066 303.82 218.919 303.493 218.626 303.24C218.346 302.973 217.986 302.767 217.546 302.62C217.106 302.473 216.506 302.307 215.746 302.12C214.679 301.867 213.813 301.613 213.146 301.36C212.493 301.107 211.926 300.713 211.446 300.18C210.979 299.633 210.746 298.9 210.746 297.98C210.746 297.207 210.953 296.507 211.366 295.88C211.793 295.24 212.426 294.733 213.266 294.36C214.119 293.987 215.159 293.8 216.386 293.8C217.239 293.8 218.079 293.907 218.906 294.12C219.733 294.333 220.446 294.64 221.046 295.04L220.226 297.06C219.613 296.7 218.973 296.427 218.306 296.24C217.639 296.053 216.993 295.96 216.366 295.96C215.339 295.96 214.573 296.133 214.066 296.48C213.573 296.827 213.326 297.287 213.326 297.86C213.326 298.26 213.466 298.587 213.746 298.84C214.039 299.093 214.406 299.293 214.846 299.44C215.286 299.587 215.886 299.753 216.646 299.94C217.686 300.18 218.539 300.433 219.206 300.7C219.873 300.953 220.439 301.347 220.906 301.88C221.386 302.413 221.626 303.133 221.626 304.04C221.626 304.813 221.413 305.513 220.986 306.14C220.573 306.767 219.939 307.267 219.086 307.64C218.233 308.013 217.193 308.2 215.966 308.2ZM223.644 294H226.604L226.104 303.36H224.124L223.644 294ZM225.124 308.14C224.658 308.14 224.271 307.993 223.964 307.7C223.658 307.393 223.504 307.02 223.504 306.58C223.504 306.14 223.658 305.773 223.964 305.48C224.271 305.187 224.658 305.04 225.124 305.04C225.578 305.04 225.951 305.187 226.244 305.48C226.551 305.773 226.704 306.14 226.704 306.58C226.704 307.02 226.551 307.393 226.244 307.7C225.951 307.993 225.578 308.14 225.124 308.14Z" fill="black"/>
<path d="M315.848 36.4411L281.229 36.4339C278.541 36.4339 275.962 38.0485 274.054 40.9375C272.155 43.8121 271.083 47.722 271.078 51.7984C271.074 65.6497 263.085 77.7415 253.943 77.7343C244.491 77.7198 236.799 66.0914 236.799 51.7984C236.799 47.7292 235.727 43.8193 233.823 40.9375C231.92 38.0557 229.341 36.4411 226.648 36.4339L203.591 36.4339C198.204 36.4339 193.435 43.6528 193.445 51.7912C193.445 65.6642 185.461 77.7343 176.31 77.7271C171.727 77.7271 167.427 75.0263 164.188 70.1244C160.954 65.2298 159.175 58.7132 159.175 51.7912C159.175 47.722 158.103 43.8121 156.199 40.9303C154.295 38.0486 151.712 36.4266 149.024 36.4266L125.972 36.4194C123.283 36.4194 120.705 38.0341 118.796 40.9231C116.897 43.7976 115.826 47.7075 115.821 51.784C115.821 65.6425 107.837 77.7271 98.681 77.7271C94.0983 77.7271 89.7978 75.0263 86.5593 70.1245C83.3255 65.2298 81.546 58.7132 81.546 51.7912C81.546 47.722 80.4745 43.8121 78.5706 40.9303C76.6715 38.0558 74.0883 36.4339 71.3952 36.4266L36.7856 36.4339C31.3992 36.4339 26.6347 43.6455 26.6395 51.7912L26.6395 864.665C26.6395 868.735 27.711 872.645 29.6149 875.526C31.5188 878.408 34.0972 880.023 36.7904 880.03L71.4143 880.03C77.0207 880.03 81.5604 873.159 81.5604 864.673C81.5556 850.807 89.5394 838.737 98.6953 838.737C103.273 838.73 107.574 841.43 110.812 846.332C114.051 851.234 115.83 857.751 115.835 864.68C115.835 873.166 120.38 880.044 125.981 880.037L149.029 880.037C154.635 880.037 159.175 873.151 159.175 864.694C159.184 850.821 167.159 838.737 176.319 838.744C180.897 838.737 185.198 841.438 188.431 846.332C191.67 851.234 193.45 857.751 193.454 864.68C193.454 873.166 197.999 880.044 203.605 880.044L226.657 880.037C232.259 880.03 236.799 873.159 236.804 864.68C236.799 850.829 244.787 838.737 253.934 838.737C263.381 838.744 271.069 850.394 271.078 864.687C271.083 873.166 275.623 880.037 281.229 880.037L315.848 880.03C318.647 880.023 321.187 878.307 323.024 875.526C324.861 872.746 325.999 868.908 325.999 864.665L325.994 51.7984C325.999 43.3197 321.455 36.4411 315.848 36.4411ZM305.707 849.301L289.974 849.308C285.53 825.523 271.059 808.022 253.943 808.008C243.95 808.015 234.546 813.909 227.48 824.603C222.869 831.583 219.606 840.069 217.899 849.315L212.369 849.315C210.656 840.062 207.399 831.583 202.787 824.603C195.717 813.901 186.317 808.015 176.319 808.015C166.322 808.015 156.926 813.909 149.856 824.61C145.245 831.59 141.987 840.069 140.279 849.315L134.75 849.315C133.042 840.069 129.779 831.583 125.168 824.603C118.093 813.894 108.693 808.008 98.7001 808.015C88.7071 808.008 79.3025 813.902 72.2323 824.603C67.6257 831.576 64.3632 840.062 62.6554 849.308L46.9364 849.308L46.9317 67.1558H62.6507C64.3584 76.402 67.6161 84.8808 72.2275 91.8608C79.2977 102.562 88.7023 108.456 98.7001 108.456C108.693 108.463 118.098 102.57 125.168 91.868C129.779 84.888 133.037 76.4093 134.75 67.1558L140.275 67.163C141.982 76.4093 145.245 84.8953 149.851 91.868C156.922 102.57 166.326 108.463 176.324 108.463C186.327 108.456 195.731 102.562 202.797 91.8679C207.403 84.8952 210.661 76.4165 212.369 67.1703L217.908 67.1703C222.343 90.9557 236.823 108.456 253.948 108.471C263.941 108.463 273.346 102.57 280.416 91.868C285.027 84.8881 288.285 76.4093 289.998 67.1703L305.712 67.1775L305.707 849.301Z" fill="#D1B05E" fill-opacity="0.7"/>
</g>
<defs>
<clipPath id="clip0_2330_21">
<rect width="353" height="458" fill="white"/>
</clipPath>
</defs>
</svg>
