<svg width="53" height="38" viewBox="0 0 53 38" fill="none" xmlns="http://www.w3.org/2000/svg">
<circle cx="34" cy="19" r="18.5" transform="rotate(-90 34 19)" stroke="#100903" stroke-opacity="0.4"/>
<path d="M41.7071 19.7071C42.0976 19.3166 42.0976 18.6834 41.7071 18.2929L35.3431 11.9289C34.9526 11.5384 34.3195 11.5384 33.9289 11.9289C33.5384 12.3195 33.5384 12.9526 33.9289 13.3431L39.5858 19L33.9289 24.6569C33.5384 25.0474 33.5384 25.6805 33.9289 26.0711C34.3195 26.4616 34.9526 26.4616 35.3431 26.0711L41.7071 19.7071ZM4.37114e-08 20L41 20L41 18L-4.37114e-08 18L4.37114e-08 20Z" fill="#100903"/>
</svg>
