<svg width="24" height="24" viewBox="0 0 24 24" fill="none" xmlns="http://www.w3.org/2000/svg">
<path d="M8 13V4.5C8 4.10218 8.15804 3.72064 8.43934 3.43934C8.72064 3.15804 9.10218 3 9.5 3C9.89782 3 10.2794 3.15804 10.5607 3.43934C10.842 3.72064 11 4.10218 11 4.5V12M11 11.5V9.5C11 9.10218 11.158 8.72064 11.4393 8.43934C11.7206 8.15804 12.1022 8 12.5 8C12.8978 8 13.2794 8.15804 13.5607 8.43934C13.842 8.72064 14 9.10218 14 9.5V12M14 10.5C14 10.1022 14.158 9.72064 14.4393 9.43934C14.7206 9.15804 15.1022 9 15.5 9C15.8978 9 16.2794 9.15804 16.5607 9.43934C16.842 9.72064 17 10.1022 17 10.5V12" stroke="black" stroke-width="2" stroke-linecap="round" stroke-linejoin="round"/>
<path d="M17 11.5C17 11.1022 17.1581 10.7207 17.4394 10.4393C17.7207 10.158 18.1022 10 18.5 10C18.8978 10 19.2794 10.158 19.5607 10.4393C19.842 10.7207 20 11.1022 20 11.5V16C20 17.5913 19.3679 19.1174 18.2427 20.2426C17.1174 21.3679 15.5913 22 14 22H12H12.208C11.2144 22.0002 10.2362 21.7536 9.3614 21.2823C8.4866 20.811 7.74253 20.1299 7.19602 19.3L7.00002 19C6.68802 18.521 5.59302 16.612 3.71402 13.272C3.52247 12.9315 3.4713 12.5298 3.5714 12.1522C3.6715 11.7745 3.91496 11.4509 4.25002 11.25C4.60689 11.0359 5.02509 10.9471 5.43818 10.9979C5.85126 11.0486 6.23556 11.2359 6.53002 11.53L8.00002 13M2.54102 5.59401C3.30843 5.03297 4.13302 4.55465 5.00102 4.16701M14 3.45801C15.3023 3.80746 16.5445 4.35088 17.685 5.07001" stroke="black" stroke-width="2" stroke-linecap="round" stroke-linejoin="round"/>
</svg>
