<svg width="11" height="15" viewBox="0 0 11 15" fill="none" xmlns="http://www.w3.org/2000/svg">
<path d="M5.50127 0C8.53753 0 10.9989 2.44323 10.9989 5.45714C10.9989 5.45714 11.0079 5.61764 10.9749 5.92082C10.9375 6.36518 10.8462 6.79319 10.7069 7.20039C10.2653 8.70586 9.16485 11.1075 6.42054 14.1095C6.42054 14.1095 5.56116 15.1335 4.61495 14.1095C4.61495 14.1095 1.82123 10.7835 0.581574 7.88402C0.346519 7.41588 0.178836 6.91208 0.0875082 6.38004C0.0201359 6.05308 -0.0113049 5.74248 0.00366688 5.45714C0.00366688 2.44323 2.46501 0 5.50127 0ZM5.50876 7.73392C6.77237 7.73392 7.79643 6.71739 7.79643 5.46308C7.79643 4.20877 6.77237 3.19225 5.50876 3.19225C4.24515 3.19225 3.22108 4.20877 3.22108 5.46308C3.22108 6.71739 4.24515 7.73392 5.50876 7.73392Z" fill="#F0EEE1" fill-opacity="0.8"/>
</svg>
