<svg width="54" height="43" viewBox="0 0 54 43" fill="none" xmlns="http://www.w3.org/2000/svg">
<path d="M52.92 0.47999L53.08 0.799995C49.88 2.50666 47.2667 5.01333 45.24 8.31999C43.2133 11.52 42.2 14.88 42.2 18.4C42.2 18.9333 42.2533 19.36 42.36 19.68C42.5733 19.8933 42.7867 20.1067 43 20.32C43.32 20.4267 43.7467 20.5333 44.28 20.64C47.0533 21.0667 49.24 22.2933 50.84 24.32C52.5467 26.24 53.4 28.5867 53.4 31.36C53.4 34.4533 52.3333 37.0667 50.2 39.2C48.0667 41.2267 45.4 42.24 42.2 42.24C38.5733 42.24 35.64 41.0133 33.4 38.56C31.16 36.1067 30.04 32.8533 30.04 28.8C30.04 22.4 32.1733 16.48 36.44 11.04C40.7067 5.6 46.2 2.07999 52.92 0.47999ZM23.16 0.47999L23.32 0.799995C20.12 2.50666 17.5067 5.01333 15.48 8.31999C13.4533 11.52 12.44 14.88 12.44 18.4C12.44 18.9333 12.4933 19.36 12.6 19.68C12.8133 19.8933 13.0267 20.1067 13.24 20.32C13.56 20.4267 13.9867 20.5333 14.52 20.64C17.2933 21.0667 19.48 22.2933 21.08 24.32C22.7867 26.24 23.64 28.5867 23.64 31.36C23.64 34.4533 22.5733 37.0667 20.44 39.2C18.3067 41.2267 15.64 42.24 12.44 42.24C8.81333 42.24 5.88 41.0133 3.64 38.56C1.4 36.1067 0.28 32.8533 0.28 28.8C0.28 22.4 2.41333 16.48 6.68 11.04C10.9467 5.6 16.44 2.07999 23.16 0.47999Z" fill="#E3E0C8"/>
</svg>
